<?xml version="1.0" encoding="UTF-8"?>
<svg version="1.1" xmlns="http://www.w3.org/2000/svg" width="964" height="432">
<path d="M0 0 C318.12 0 636.24 0 964 0 C964 142.56 964 285.12 964 432 C645.88 432 327.76 432 0 432 C0 289.44 0 146.88 0 0 Z " fill="#FEFEFE" transform="translate(0,0)"/>
<path d="M0 0 C1.91817787 -0.00618599 1.91817787 -0.00618599 3.87510681 -0.01249695 C5.27954316 -0.00188157 6.68397734 0.00902283 8.08840942 0.02018738 C9.57696007 0.02103419 11.06551197 0.02055745 12.55406189 0.01885986 C16.58468019 0.01800059 20.61502961 0.03561518 24.64558554 0.05658174 C28.86163049 0.07535997 33.07768189 0.07709988 37.29376221 0.08065796 C45.27283915 0.08997506 53.25179249 0.11458429 61.23081505 0.14470643 C70.31661635 0.17826087 79.40242362 0.19473907 88.48827147 0.20979273 C107.17422732 0.24113416 125.86006819 0.29388813 144.54592896 0.36076355 C144.54592896 1.68076355 144.54592896 3.00076355 144.54592896 4.36076355 C143.82147583 4.44713074 143.09702271 4.53349792 142.35061646 4.6224823 C135.88184542 5.56261036 132.08291352 6.58499033 127.54592896 11.36076355 C127.21592896 12.02076355 126.88592896 12.68076355 126.54592896 13.36076355 C83.97592896 13.36076355 41.40592896 13.36076355 -2.45407104 13.36076355 C-5.00968211 21.02759674 -3.34662329 30.0524091 -2.26657104 37.92326355 C-2.13275024 38.90794617 -1.99892944 39.89262878 -1.86105347 40.90715027 C2.28628603 70.30127455 8.5980148 99.49934722 21.54592896 126.36076355 C21.97857056 127.2729364 22.41121216 128.18510925 22.85696411 129.12492371 C23.29701782 130.03419617 23.73707153 130.94346863 24.19046021 131.8802948 C24.79337891 133.12903381 24.79337891 133.12903381 25.40847778 134.40299988 C26.39562008 136.51423835 26.39562008 136.51423835 28.54592896 137.36076355 C28.54592896 138.02076355 28.54592896 138.68076355 28.54592896 139.36076355 C31.12776463 136.85269461 33.44372477 134.4970358 35.60842896 131.61076355 C43.90785942 121.6668639 55.54829272 115.33468155 68.39797974 114.08293152 C71.5547726 113.88385449 74.69583708 113.78443744 77.85842896 113.73576355 C79.3613147 113.70083801 79.3613147 113.70083801 80.89456177 113.66520691 C89.2146869 113.75396775 95.72701059 116.01094067 102.02639771 121.5365448 C102.58971802 122.24166199 103.15303833 122.94677917 103.73342896 123.67326355 C104.37022583 124.44670105 105.00702271 125.22013855 105.66311646 126.01701355 C106.28444458 126.79045105 106.90577271 127.56388855 107.54592896 128.36076355 C108.81084208 129.80347571 110.08139177 131.24127206 111.35842896 132.67326355 C112.4335563 133.89140071 113.49668353 135.12026326 114.54592896 136.36076355 C115.08604614 136.99369324 115.62616333 137.62662292 116.18264771 138.2787323 C121.28953984 146.07808333 119.26350754 160.48644554 118.54592896 169.36076355 C117.52410138 173.62677913 115.98147374 176.74397954 113.54592896 180.36076355 C112.96842896 181.33271667 112.39092896 182.3046698 111.79592896 183.30607605 C107.43236163 190.50972383 107.43236163 190.50972383 104.39358521 193.4271698 C102.40172743 195.51167212 102.10809232 196.61348012 101.54592896 199.36076355 C115.75961894 199.46424505 129.97248252 199.50893947 144.18655491 199.48773384 C150.78814151 199.47956466 157.38861796 199.48959705 163.99002075 199.54240417 C170.37072445 199.59275659 176.74976458 199.59375845 183.13056755 199.56171799 C185.55482527 199.5579904 187.97917789 199.57151873 190.40323067 199.60326004 C205.67964262 199.78961479 215.94875199 198.76476469 227.54592896 188.36076355 C228.36206665 187.66331528 229.17820435 186.965867 230.01907349 186.24728394 C231.90333117 184.59258786 233.63393922 182.86774423 235.35842896 181.04826355 C236.27616089 180.10829529 236.27616089 180.10829529 237.21243286 179.14933777 C242.85056447 173.26857862 247.75472721 166.94068061 252.54592896 160.36076355 C253.54592896 159.36076355 253.54592896 159.36076355 255.4884491 159.24050903 C256.33894333 159.24272964 257.18943756 159.24495026 258.06570435 159.24723816 C259.50708519 159.24735146 259.50708519 159.24735146 260.97758484 159.24746704 C262.54475502 159.25520897 262.54475502 159.25520897 264.14358521 159.2631073 C265.73957802 159.26522972 265.73957802 159.26522972 267.36781311 159.26739502 C270.78137979 159.27301291 274.19488195 159.28556844 277.60842896 159.29826355 C279.91637072 159.30327624 282.22431351 159.30783955 284.53225708 159.31193542 C290.20350322 159.32298815 295.87471148 159.33974368 301.54592896 159.36076355 C301.54592896 160.02076355 301.54592896 160.68076355 301.54592896 161.36076355 C299.90297376 162.13771246 298.25636636 162.90693875 296.60842896 163.67326355 C295.69190552 164.10252136 294.77538208 164.53177917 293.83108521 164.9740448 C287.02955909 167.84508139 280.72153475 169.57967785 273.38919067 170.48576355 C262.59117361 171.74424617 262.59117361 171.74424617 254.42092896 178.36076355 C253.80991333 179.31982605 253.19889771 180.27888855 252.56936646 181.26701355 C250.13516899 184.98879809 247.25444971 187.81056105 244.04592896 190.86076355 C240.01210622 194.5533257 240.01210622 194.5533257 237.54592896 199.36076355 C238.84139145 199.3518811 240.13685394 199.34299866 241.47157288 199.33384705 C253.69783711 199.25265546 265.92404642 199.19274721 278.15051937 199.15351486 C284.43583883 199.13266684 290.72094012 199.10439949 297.00613403 199.05900574 C303.07508544 199.01544955 309.14382737 198.9916055 315.21292305 198.98125458 C317.52491107 198.97388082 319.83688802 198.95948163 322.14878654 198.93784332 C325.39461653 198.90868024 328.63958802 198.90481305 331.88552856 198.90666199 C332.83499863 198.89228088 333.78446869 198.87789978 334.76271057 198.86308289 C341.53867842 198.90467287 347.96459986 200.10242468 353.13685513 204.80820847 C357.68216417 210.04879944 358.96081555 214.05370872 358.79202271 220.84513855 C358.01970538 228.73993785 352.48692286 235.88504348 347.48342896 241.79826355 C343.52325419 244.99195288 339.7121167 245.6111988 334.72121716 245.62082577 C333.54925799 245.62789136 332.37729882 245.63495695 331.16982573 245.64223665 C329.24465596 245.63861402 329.24465596 245.63861402 327.28059387 245.63491821 C325.90016906 245.63937137 324.51974681 245.64468567 323.1393283 245.65078694 C319.34652301 245.66496797 315.55379967 245.66663021 311.76097167 245.66619003 C307.67018986 245.66783813 303.57944182 245.68090445 299.48867798 245.69238281 C290.54450776 245.71523166 281.60036128 245.72315316 272.65616584 245.72820926 C267.07146651 245.73146612 261.48677406 245.73798851 255.90207863 245.74521065 C240.43940166 245.76477569 224.97673109 245.7811807 209.51404095 245.78408718 C208.02984844 245.78436854 208.02984844 245.78436854 206.51567226 245.78465557 C204.50980175 245.78502182 202.50393124 245.78538552 200.49806073 245.78574669 C199.50234601 245.7859295 198.5066313 245.78611231 197.48074341 245.78630066 C195.98534847 245.78657148 195.98534847 245.78657148 194.45974354 245.78684778 C178.30232325 245.79039018 162.14503618 245.8174171 145.9876621 245.85479855 C129.39887599 245.89287101 112.810156 245.91224458 96.22132522 245.91254669 C86.90734262 245.91313147 77.59351897 245.92163658 68.27957726 245.95054436 C60.34948637 245.97504395 52.41961242 245.98235072 44.48949393 245.96729683 C40.44385199 245.9601223 36.39863855 245.96100842 32.35304451 245.98370743 C28.64740657 246.00429976 24.94252648 246.00169559 21.23689673 245.98083258 C19.26565814 245.97568613 17.29440236 245.99511528 15.32326239 246.01549429 C6.82183223 245.93486972 1.71180786 244.38500257 -4.40719604 238.4740448 C-9.71926107 231.09795451 -13.5144273 223.60101096 -12.45407104 214.36076355 C-10.70605832 208.39695543 -7.6609491 204.62643659 -2.45407104 201.36076355 C1.86089467 199.66862773 5.41531461 199.12142437 10.03811646 199.16545105 C11.83635864 199.17511902 11.83635864 199.17511902 13.67092896 199.1849823 C15.52717896 199.21011902 15.52717896 199.21011902 17.42092896 199.23576355 C18.68163208 199.24478699 19.94233521 199.25381042 21.24124146 199.2631073 C24.34299936 199.28660547 27.44436547 199.3194602 30.54592896 199.36076355 C29.44890815 196.42231497 28.5242258 194.3336346 26.54592896 191.86076355 C20.0941238 183.79600711 21.48042401 173.40381544 21.76077271 163.68302917 C21.98897611 156.48841659 21.98897611 156.48841659 18.54592896 150.36076355 C17.88592896 150.03076355 17.22592896 149.70076355 16.54592896 149.36076355 C15.43606567 147.43742371 15.43606567 147.43742371 14.22561646 144.89982605 C13.55236328 143.49531189 13.55236328 143.49531189 12.86550903 142.06242371 C12.38879761 141.04712585 11.91208618 140.031828 11.42092896 138.98576355 C10.92810425 137.94081726 10.43527954 136.89587097 9.92752075 135.81925964 C-4.38987091 105.24912784 -14.67867727 73.94043925 -17.22775269 40.08122253 C-17.28030696 38.33157931 -17.28030696 38.33157931 -18.45407104 37.36076355 C-18.93202648 34.33371245 -19.23515395 31.41366195 -19.45407104 28.36076355 C-19.55590698 27.09361511 -19.65774292 25.82646667 -19.76266479 24.5209198 C-20.20015672 16.78364129 -19.94052892 11.13322368 -14.57125854 5.0599823 C-9.93903607 1.34223917 -5.90446969 -0.01473661 0 0 Z " fill="#B8BD60" transform="translate(109.45407104492188,145.6392364501953)"/>
<path d="M0 0 C1.3602832 -0.01160156 1.3602832 -0.01160156 2.74804688 -0.0234375 C12.22634405 0.00405575 18.21504889 2.23915833 25.4375 8.25 C26.22125 8.8275 27.005 9.405 27.8125 10 C32.69177568 16.75592017 32.23786213 27.5474198 31.125 35.4765625 C29.84272759 41.40707239 28.00035616 46.38151374 23.05859375 49.984375 C14.99213416 54.91583501 9.09656463 55.48584693 -0.25 55.5625 C-1.98926758 55.60600586 -1.98926758 55.60600586 -3.76367188 55.65039062 C-11.79614546 55.70975513 -17.47159663 54.85125857 -23.5859375 49.46875 C-24.03195312 48.9015625 -24.47796875 48.334375 -24.9375 47.75 C-25.39898437 47.1828125 -25.86046875 46.615625 -26.3359375 46.03125 C-30.27140917 40.31604273 -29.89521888 35.21082492 -29.875 28.4375 C-29.89916992 26.83551758 -29.89916992 26.83551758 -29.92382812 25.20117188 C-29.92826948 18.01950892 -29.49336003 12.81772097 -24.80078125 7.10546875 C-24.16527344 6.55503906 -23.52976562 6.00460938 -22.875 5.4375 C-22.25238281 4.87417969 -21.62976563 4.31085938 -20.98828125 3.73046875 C-14.53299916 -0.20922837 -7.32633343 -0.06275232 0 0 Z " fill="#BDC266" transform="translate(347.5625,201.75)"/>
<path d="M0 0 C1.87187172 -0.01650795 3.74368175 -0.0437294 5.61523438 -0.08203125 C8.32308443 -0.13713703 11.0294557 -0.15872893 13.73779297 -0.17333984 C14.97887314 -0.2073439 14.97887314 -0.2073439 16.24502563 -0.24203491 C23.24738531 -0.21689291 27.70518601 2.27056938 32.89419556 6.84463501 C35.45634314 9.80141098 34.70730027 13.75090201 34.64013672 17.46728516 C34.04042662 21.38397589 32.19376373 22.89263447 29.19873047 25.35009766 C28.95098661 27.52586254 28.95098661 27.52586254 30.19873047 29.35009766 C31.51210442 30.37617106 32.84537152 31.37737091 34.19873047 32.35009766 C35.84787318 37.2975258 36.02353657 42.2880824 34.07373047 47.16259766 C30.82328711 50.95478158 27.12682273 53.47662952 22.19873047 54.35009766 C19.84211045 54.44395868 17.48299923 54.48080289 15.12451172 54.48291016 C14.44124313 54.48386688 13.75797455 54.48482361 13.05400085 54.48580933 C11.60916044 54.48648851 10.16431694 54.48465248 8.71948242 54.48046875 C6.53606071 54.47515805 4.35284859 54.48040113 2.16943359 54.48681641 C0.75862586 54.48615478 -0.65218175 54.48487186 -2.06298828 54.48291016 C-3.33102295 54.48178223 -4.59905762 54.4806543 -5.90551758 54.47949219 C-10.21817706 54.33625038 -14.51262378 53.82661385 -18.80126953 53.35009766 C-18.80126953 36.19009766 -18.80126953 19.03009766 -18.80126953 1.35009766 C-13.70408363 -1.1984953 -5.67266987 0.0366362 0 0 Z " fill="#ABB055" transform="translate(729.80126953125,202.64990234375)"/>
<path d="M0 0 C2.09761581 -0.00219595 4.19471246 -0.02043211 6.29223633 -0.03930664 C7.64575018 -0.04223994 8.9992665 -0.04422516 10.3527832 -0.04516602 C11.56393799 -0.0492749 12.77509277 -0.05338379 14.02294922 -0.05761719 C18.52936674 0.25395848 22.76971098 0.96142846 26.5324707 3.56811523 C31.2933071 9.32240529 31.21128862 15.34102802 30.94262695 22.47827148 C30.48243891 26.67748734 29.74085445 29.72989243 27.03637695 32.99780273 C25.53637695 34.18530273 25.53637695 34.18530273 23.53637695 34.18530273 C24.56639175 37.70451994 25.8019429 40.79008981 27.66137695 43.93530273 C29.53637695 47.18530273 29.53637695 47.18530273 29.53637695 49.18530273 C30.19637695 49.18530273 30.85637695 49.18530273 31.53637695 49.18530273 C31.53637695 50.83530273 31.53637695 52.48530273 31.53637695 54.18530273 C26.71408377 54.8474484 22.33061055 55.14099881 17.53637695 54.18530273 C14.21295834 50.9669506 12.56429264 47.29100089 10.53637695 43.18530273 C8.94109501 40.27672744 8.94109501 40.27672744 6.53637695 38.18530273 C3.0366256 37.58144581 3.0366256 37.58144581 -0.71362305 37.87280273 C-2.94112305 37.97592773 -5.16862305 38.07905273 -7.46362305 38.18530273 C-7.79362305 43.46530273 -8.12362305 48.74530273 -8.46362305 54.18530273 C-18.5222168 54.28295898 -18.5222168 54.28295898 -21.46362305 54.18530273 C-23.1045005 52.54442529 -22.5910206 50.66699211 -22.59301758 48.40600586 C-22.59616974 47.38825073 -22.5993219 46.37049561 -22.60256958 45.32189941 C-22.60054535 44.21463501 -22.59852112 43.10737061 -22.59643555 41.96655273 C-22.59739227 40.83834106 -22.598349 39.71012939 -22.59933472 38.54772949 C-22.60001672 36.15690048 -22.59816102 33.76606962 -22.59399414 31.37524414 C-22.5886462 27.70121122 -22.59393847 24.02730057 -22.6003418 20.35327148 C-22.59968102 18.03686496 -22.59839986 15.72045852 -22.59643555 13.40405273 C-22.59947189 11.74315613 -22.59947189 11.74315613 -22.60256958 10.04870605 C-22.59941742 9.03095093 -22.59626526 8.0131958 -22.59301758 6.96459961 C-22.59222198 6.0638269 -22.59142639 5.1630542 -22.59060669 4.23498535 C-22.46362305 2.18530273 -22.46362305 2.18530273 -21.46362305 1.18530273 C-14.35767499 -0.08137069 -7.19692296 -0.00084362 0 0 Z " fill="#A7AC50" transform="translate(884.463623046875,201.814697265625)"/>
<path d="M0 0 C1.46657043 -0.00472824 1.46657043 -0.00472824 2.96276855 -0.009552 C4.0262854 -0.00752777 5.08980225 -0.00550354 6.18554688 -0.00341797 C7.81127625 -0.00485306 7.81127625 -0.00485306 9.46984863 -0.00631714 C11.76652077 -0.00699912 14.06319482 -0.00514358 16.35986328 -0.00097656 C19.88904115 0.00437141 23.41809174 -0.00092097 26.94726562 -0.00732422 C29.17252632 -0.00666344 31.39778694 -0.00538228 33.62304688 -0.00341797 C34.68656372 -0.0054422 35.75008057 -0.00746643 36.8458252 -0.009552 C37.82353882 -0.00639984 38.80125244 -0.00324768 39.80859375 0 C40.67383667 0.00079559 41.53907959 0.00159119 42.43054199 0.00241089 C44.40429688 0.12939453 44.40429688 0.12939453 45.40429688 1.12939453 C45.50253625 2.79368505 45.53403318 4.46221384 45.52929688 6.12939453 C45.53316406 7.49064453 45.53316406 7.49064453 45.53710938 8.87939453 C45.40429688 11.12939453 45.40429688 11.12939453 44.40429688 12.12939453 C41.81070366 12.21790982 39.24389996 12.24465398 36.65039062 12.22705078 C35.874944 12.22563583 35.09949738 12.22422089 34.30055237 12.22276306 C31.81426193 12.21714798 29.32806027 12.204593 26.84179688 12.19189453 C25.16015755 12.18688147 23.47851681 12.18231823 21.796875 12.17822266 C17.66598121 12.16717366 13.53515412 12.14989898 9.40429688 12.12939453 C9.13497166 16.77992325 9.13497166 16.77992325 10.40429688 21.12939453 C23.76929688 21.62439453 23.76929688 21.62439453 37.40429688 22.12939453 C37.40429688 25.75939453 37.40429688 29.38939453 37.40429688 33.12939453 C24.03929687 33.62439453 24.03929687 33.62439453 10.40429688 34.12939453 C9.90929687 36.60439453 9.90929687 36.60439453 9.40429688 39.12939453 C11.37675362 41.10185128 15.20184058 40.36075804 17.90429688 40.41064453 C19.03061523 40.43825867 19.03061523 40.43825867 20.1796875 40.46643066 C22.58780875 40.52535757 24.99600158 40.57810321 27.40429688 40.62939453 C30.57112131 40.69684083 33.73770772 40.77050873 36.90429688 40.84814453 C37.63970703 40.86171997 38.37511719 40.87529541 39.1328125 40.88928223 C44.29149506 41.01659272 44.29149506 41.01659272 45.40429688 42.12939453 C45.50253625 43.79368505 45.53403318 45.46221384 45.52929688 47.12939453 C45.53316406 48.49064453 45.53316406 48.49064453 45.53710938 49.87939453 C45.40429688 52.12939453 45.40429688 52.12939453 44.40429688 53.12939453 C42.87495057 53.22778667 41.34110122 53.25737992 39.80859375 53.25878906 C38.34202332 53.2635173 38.34202332 53.2635173 36.8458252 53.26834106 C35.78230835 53.26631683 34.7187915 53.2642926 33.62304688 53.26220703 C31.9973175 53.26364212 31.9973175 53.26364212 30.33874512 53.2651062 C28.04207298 53.26578818 25.74539893 53.26393264 23.44873047 53.25976562 C19.9195526 53.25441765 16.39050201 53.25971003 12.86132812 53.26611328 C10.63606743 53.2654525 8.41080681 53.26417135 6.18554688 53.26220703 C5.12203003 53.26423126 4.05851318 53.26625549 2.96276855 53.26834106 C1.98505493 53.2651889 1.00734131 53.26203674 0 53.25878906 C-0.86524292 53.25799347 -1.73048584 53.25719788 -2.62194824 53.25637817 C-4.59570312 53.12939453 -4.59570312 53.12939453 -5.59570312 52.12939453 C-5.69424735 50.53876143 -5.72369006 48.94377976 -5.72509766 47.35009766 C-5.72824982 46.33234253 -5.73140198 45.3145874 -5.73464966 44.26599121 C-5.73262543 43.15872681 -5.7306012 42.0514624 -5.72851562 40.91064453 C-5.72947235 39.78243286 -5.73042908 38.65422119 -5.73141479 37.49182129 C-5.7320968 35.10099227 -5.7302411 32.71016142 -5.72607422 30.31933594 C-5.72072628 26.64530302 -5.72601855 22.97139236 -5.73242188 19.29736328 C-5.7317611 16.98095676 -5.73047994 14.66455031 -5.72851562 12.34814453 C-5.73155197 10.68724792 -5.73155197 10.68724792 -5.73464966 8.99279785 C-5.7314975 7.97504272 -5.72834534 6.9572876 -5.72509766 5.90869141 C-5.72430206 5.0079187 -5.72350647 4.107146 -5.72268677 3.17907715 C-5.48186568 -0.70809124 -3.3869986 0.00311435 0 0 Z " fill="#B0B55A" transform="translate(544.595703125,202.87060546875)"/>
<path d="M0 0 C16.83 0 33.66 0 51 0 C51 3.63 51 7.26 51 11 C47.9450722 12.5274639 44.7236686 12.23991832 41.3671875 12.31640625 C40.61535187 12.33718735 39.86351624 12.35796844 39.08889771 12.37937927 C36.68435915 12.44482705 34.27971033 12.50373738 31.875 12.5625 C30.24608229 12.60568977 28.61717578 12.64930421 26.98828125 12.69335938 C22.99230085 12.80050351 18.99620941 12.90178433 15 13 C15 15.31 15 17.62 15 20 C15.78238037 20.02505615 16.56476074 20.0501123 17.37084961 20.07592773 C20.89324949 20.19149788 24.4153556 20.31439949 27.9375 20.4375 C29.78504883 20.49647461 29.78504883 20.49647461 31.66992188 20.55664062 C32.83974609 20.59853516 34.00957031 20.64042969 35.21484375 20.68359375 C36.84087524 20.73858032 36.84087524 20.73858032 38.49975586 20.79467773 C41 21 41 21 42 22 C42 25.63 42 29.26 42 33 C28.635 33.495 28.635 33.495 15 34 C15 35.98 15 37.96 15 40 C16.97829072 41.97829072 20.82327027 41.25503932 23.53515625 41.31640625 C24.28840683 41.33718735 25.04165741 41.35796844 25.81773376 41.37937927 C28.2325599 41.44495425 30.64749798 41.50379621 33.0625 41.5625 C34.69597529 41.6056777 36.3294391 41.64929173 37.96289062 41.69335938 C41.97514464 41.80064362 45.98751164 41.90188821 50 42 C50 45.63 50 49.26 50 53 C33.5 53 17 53 0 53 C0 35.51 0 18.02 0 0 Z " fill="#AEB35A" transform="translate(610,203)"/>
<path d="M0 0 C6.79414374 0.08251996 6.79414374 0.08251996 9.75 2.75 C10.224375 3.966875 10.69875 5.18375 11.1875 6.4375 C12.03751332 8.25195151 12.89203504 10.06429487 13.75 11.875 C15.09349577 14.90501174 16.40123874 17.94512952 17.6875 21 C18.91604668 23.81541948 20.22886525 26.5171405 21.625 29.25 C23.78954029 33.51388358 25.60592133 37.83612336 27.29296875 42.30859375 C28.20679809 44.67127687 28.20679809 44.67127687 30.1875 47.4375 C30.3125 50.625 30.3125 50.625 30.1875 53.4375 C28.41742286 53.51864106 26.64627902 53.57675505 24.875 53.625 C23.88886719 53.65980469 22.90273438 53.69460938 21.88671875 53.73046875 C19.1875 53.4375 19.1875 53.4375 17.43359375 52.08984375 C15.83574862 49.97107106 14.51622555 47.73257141 13.1875 45.4375 C10.60424049 42.85424049 3.95845876 43.91297817 0.5 43.8125 C-0.58990234 43.74160156 -1.67980469 43.67070312 -2.80273438 43.59765625 C-6.04044009 43.52277322 -8.68921472 43.56362305 -11.8125 44.4375 C-13.84222257 46.62268732 -15.10417015 48.79301222 -16.50805664 51.41601562 C-17.8125 53.4375 -17.8125 53.4375 -21.0234375 54.31640625 C-22.06757812 54.21199219 -23.11171875 54.10757813 -24.1875 54 C-25.24710938 53.91878906 -26.30671875 53.83757812 -27.3984375 53.75390625 C-28.19507813 53.64949219 -28.99171875 53.54507813 -29.8125 53.4375 C-29.49012025 47.52720451 -28.16690049 43.84545743 -25.140625 38.79296875 C-23.33857393 35.59697817 -22.09103852 32.26252193 -20.77734375 28.84375 C-19.61579584 25.94693416 -18.24055013 23.2060192 -16.8125 20.43359375 C-15.74128924 18.29535664 -14.77123207 16.12835259 -13.8125 13.9375 C-7.80719005 0.2653319 -7.80719005 0.2653319 0 0 Z " fill="#A7AD52" transform="translate(812.8125,202.5625)"/>
<path d="M0 0 C1.9375 0.375 1.9375 0.375 4 1 C5.65847774 4.31695548 5.22668502 7.98203371 5.25 11.625 C5.270625 12.40746094 5.29125 13.18992187 5.3125 13.99609375 C5.34981652 19.62155889 4.25781541 23.87845827 2 29 C1.52433594 30.33224609 1.52433594 30.33224609 1.0390625 31.69140625 C-3.88766417 42.63762978 -14.43067485 50.06366735 -25 55 C-33.2965812 57.39679013 -43.83625106 56.80791365 -52 54 C-52.99 53.34 -53.98 52.68 -55 52 C-54.48443741 43.9691212 -50.33568285 40.38406873 -44.61328125 35.34912109 C-40.01957425 31.50759191 -35.02275802 28.24429875 -30 25 C-18.84890687 17.79106613 -8.20434052 10.66564268 0 0 Z " fill="#FCFCF9" transform="translate(211,289)"/>
<path d="M0 0 C6.99155447 0.01431229 11.73379026 1.6145421 17.5625 5.375 C17.42847446 10.73602153 15.33983565 13.49146076 11.8203125 17.24609375 C4.45100407 24.19466312 -4.04426719 29.44099219 -12.63427734 34.70776367 C-21.87495554 40.42388818 -31.33752892 47.22504338 -37.4375 56.375 C-41.3125 54.625 -41.3125 54.625 -42.4375 52.375 C-43.49401719 38.92112287 -42.71200443 29.27737258 -34.05859375 18.37890625 C-26.62964774 9.83845381 -20.72765051 5.4454674 -9.9140625 2.171875 C-3.46565664 0.09699362 -3.46565664 0.09699362 0 0 Z " fill="#FCFCFA" transform="translate(185.4375,270.625)"/>
<path d="M0 0 C1.46657043 -0.00472824 1.46657043 -0.00472824 2.96276855 -0.009552 C4.0262854 -0.00752777 5.08980225 -0.00550354 6.18554688 -0.00341797 C7.81127625 -0.00485306 7.81127625 -0.00485306 9.46984863 -0.00631714 C11.76652077 -0.00699912 14.06319482 -0.00514358 16.35986328 -0.00097656 C19.88904115 0.00437141 23.41809174 -0.00092097 26.94726562 -0.00732422 C29.17252632 -0.00666344 31.39778694 -0.00538228 33.62304688 -0.00341797 C34.68656372 -0.0054422 35.75008057 -0.00746643 36.8458252 -0.009552 C37.82353882 -0.00639984 38.80125244 -0.00324768 39.80859375 0 C40.67383667 0.00079559 41.53907959 0.00159119 42.43054199 0.00241089 C44.40429688 0.12939453 44.40429688 0.12939453 45.40429688 1.12939453 C45.50253625 2.79368505 45.53403318 4.46221384 45.52929688 6.12939453 C45.53316406 7.49064453 45.53316406 7.49064453 45.53710938 8.87939453 C45.40429688 11.12939453 45.40429688 11.12939453 44.40429688 12.12939453 C41.8127658 12.28935619 39.24477667 12.3887815 36.65039062 12.44580078 C35.48722069 12.47697243 35.48722069 12.47697243 34.30055237 12.5087738 C31.8143938 12.57435255 29.32812642 12.63319252 26.84179688 12.69189453 C25.16014483 12.73507187 23.47850394 12.77868589 21.796875 12.82275391 C17.66612817 12.93004232 13.53527152 13.03128586 9.40429688 13.12939453 C9.40429688 15.43939453 9.40429688 17.74939453 9.40429688 20.12939453 C10.62330688 20.16697876 10.62330688 20.16697876 11.86694336 20.20532227 C15.52540439 20.32088571 19.18358216 20.44379037 22.84179688 20.56689453 C24.12119141 20.60621094 25.40058594 20.64552734 26.71875 20.68603516 C27.93369141 20.72792969 29.14863281 20.76982422 30.40039062 20.81298828 C31.52630615 20.849646 32.65222168 20.88630371 33.81225586 20.92407227 C36.40429688 21.12939453 36.40429688 21.12939453 37.40429688 22.12939453 C37.50280858 23.96055336 37.53402317 25.79559386 37.52929688 27.62939453 C37.53316406 29.12986328 37.53316406 29.12986328 37.53710938 30.66064453 C37.40429688 33.12939453 37.40429688 33.12939453 36.40429688 34.12939453 C34.40647561 34.28764712 32.40340854 34.38058624 30.40039062 34.44580078 C29.18544922 34.48769531 27.97050781 34.52958984 26.71875 34.57275391 C25.43935547 34.61207031 24.15996094 34.65138672 22.84179688 34.69189453 C21.55853516 34.73507813 20.27527344 34.77826172 18.953125 34.82275391 C15.77032242 34.92924172 12.58732445 35.02985874 9.40429688 35.12939453 C9.07429688 41.06939453 8.74429687 47.00939453 8.40429688 53.12939453 C-1.65429688 53.22705078 -1.65429688 53.22705078 -4.59570312 53.12939453 C-6.23658057 51.48851708 -5.72310068 49.61108391 -5.72509766 47.35009766 C-5.72824982 46.33234253 -5.73140198 45.3145874 -5.73464966 44.26599121 C-5.73262543 43.15872681 -5.7306012 42.0514624 -5.72851562 40.91064453 C-5.72947235 39.78243286 -5.73042908 38.65422119 -5.73141479 37.49182129 C-5.7320968 35.10099227 -5.7302411 32.71016142 -5.72607422 30.31933594 C-5.72072628 26.64530302 -5.72601855 22.97139236 -5.73242188 19.29736328 C-5.7317611 16.98095676 -5.73047994 14.66455031 -5.72851562 12.34814453 C-5.73155197 10.68724792 -5.73155197 10.68724792 -5.73464966 8.99279785 C-5.7314975 7.97504272 -5.72834534 6.9572876 -5.72509766 5.90869141 C-5.72430206 5.0079187 -5.72350647 4.107146 -5.72268677 3.17907715 C-5.48186568 -0.70809124 -3.3869986 0.00311435 0 0 Z " fill="#B7BC63" transform="translate(474.595703125,202.87060546875)"/>
<path d="M0 0 C12.3440625 -0.0309375 12.3440625 -0.0309375 24.9375 -0.0625 C28.83937134 -0.07615601 28.83937134 -0.07615601 32.82006836 -0.09008789 C34.8683263 -0.09300687 36.91658481 -0.09555547 38.96484375 -0.09765625 C40.57655457 -0.1053302 40.57655457 -0.1053302 42.2208252 -0.11315918 C43.23584106 -0.11328003 44.25085693 -0.11340088 45.29663086 -0.11352539 C46.62566689 -0.11685631 46.62566689 -0.11685631 47.98155212 -0.12025452 C50 0 50 0 51 1 C51.09823937 2.66429051 51.12973631 4.33281931 51.125 6 C51.12886719 7.36125 51.12886719 7.36125 51.1328125 8.75 C51 11 51 11 50 12 C47.40846893 12.15996166 44.8404798 12.25938697 42.24609375 12.31640625 C41.08292381 12.3475779 41.08292381 12.3475779 39.89625549 12.37937927 C37.41009692 12.44495802 34.92382955 12.50379799 32.4375 12.5625 C30.75584796 12.60567733 29.07420706 12.64929136 27.39257812 12.69335938 C23.26183129 12.80064779 19.13097464 12.90189132 15 13 C15 15.31 15 17.62 15 20 C16.21901001 20.03758423 16.21901001 20.03758423 17.46264648 20.07592773 C21.12110752 20.19149118 24.77928528 20.31439584 28.4375 20.4375 C29.71689453 20.47681641 30.99628906 20.51613281 32.31445312 20.55664062 C33.52939453 20.59853516 34.74433594 20.64042969 35.99609375 20.68359375 C37.12200928 20.72025146 38.2479248 20.75690918 39.40795898 20.79467773 C42 21 42 21 43 22 C43.07226502 23.85287502 43.0838122 25.70833878 43.0625 27.5625 C43.05347656 28.57441406 43.04445313 29.58632812 43.03515625 30.62890625 C43.02355469 31.41136719 43.01195312 32.19382813 43 33 C40.23382437 34.38308781 37.98982 34.11210196 34.8984375 34.09765625 C33.08085937 34.09282227 33.08085937 34.09282227 31.2265625 34.08789062 C29.95554687 34.07951172 28.68453125 34.07113281 27.375 34.0625 C26.09625 34.05798828 24.8175 34.05347656 23.5 34.04882812 C20.33331355 34.03701213 17.16665104 34.01907621 14 34 C14 40.27 14 46.54 14 53 C9.38 53 4.76 53 0 53 C0 35.51 0 18.02 0 0 Z " fill="#BBC067" transform="translate(399,203)"/>
<path d="M0 0 C1.010625 -0.00386719 2.02125 -0.00773438 3.0625 -0.01171875 C4.04476562 -0.01042969 5.02703125 -0.00914062 6.0390625 -0.0078125 C7.36091553 -0.00612061 7.36091553 -0.00612061 8.70947266 -0.00439453 C11.61898505 0.13684393 14.50169517 0.64611586 17.375 1.125 C17.375 5.415 17.375 9.705 17.375 14.125 C16.45976562 13.96773437 15.54453125 13.81046875 14.6015625 13.6484375 C9.33333559 12.90340893 4.06319596 12.82416898 -1.25 12.75 C-2.27351563 12.71261719 -3.29703125 12.67523438 -4.3515625 12.63671875 C-8.99422791 12.58231251 -11.7929984 12.61189828 -15.8046875 15.0859375 C-18.28161918 19.22124404 -18.29395096 22.39437313 -18.125 27.125 C-18.12757813 27.9190625 -18.13015625 28.713125 -18.1328125 29.53125 C-18.05615495 34.1307031 -17.74894763 37.50779749 -14.625 41.125 C-10.6209244 43.45719842 -6.81239812 43.39350871 -2.25 43.375 C-0.98414063 43.38015625 0.28171875 43.3853125 1.5859375 43.390625 C5.44641821 43.11999336 8.67622562 42.21644162 12.375 41.125 C14.025 41.125 15.675 41.125 17.375 41.125 C17.375 45.085 17.375 49.045 17.375 53.125 C13.22432651 54.68097141 9.77451451 55.38076955 5.34765625 55.390625 C4.22552734 55.39320313 3.10339844 55.39578125 1.94726562 55.3984375 C0.78904297 55.39070313 -0.36917969 55.38296875 -1.5625 55.375 C-3.2940332 55.38660156 -3.2940332 55.38660156 -5.06054688 55.3984375 C-19.77072577 55.3646792 -19.77072577 55.3646792 -26 49.8125 C-27.00160156 48.95205078 -27.00160156 48.95205078 -28.0234375 48.07421875 C-29.9152494 45.77174524 -30.27252704 44.05052559 -30.625 41.125 C-31.285 41.125 -31.945 41.125 -32.625 41.125 C-35.89265749 34.58968502 -34.37122994 22.76660211 -32.94140625 15.7890625 C-30.66838762 9.65851434 -27.10814689 5.56320282 -21.75 1.8125 C-14.80994625 -0.43281151 -7.20497322 -0.02778267 0 0 Z " fill="#C0C56C" transform="translate(280.625,201.875)"/>
<path d="M0 0 C5.00070071 3.75052554 7.28762568 9.56021412 8.65234375 15.53515625 C10.34913591 27.56522204 8.88747269 37.81610233 3.3046875 48.453125 C0.0879048 54.73259303 -2.49333015 60.90662211 -3 68 C-3.07476562 68.74765625 -3.14953125 69.4953125 -3.2265625 70.265625 C-3.6051542 76.60205447 -2.05881193 80.88106757 0.90625 86.45703125 C2.10164831 89.23633232 2.33748835 91.00793912 2 94 C0.03995908 96.685982 -1.20599187 97.79640817 -4.4375 98.625 C-9.20685928 97.46174164 -11.01106813 93.60938502 -13.42578125 89.6796875 C-19.65864973 77.91624558 -17.50177799 65.64779675 -14.16796875 53.36328125 C-13.08762776 50.25233277 -11.99378043 48.53753873 -10 46 C-9.08319825 43.52958859 -9.08319825 43.52958859 -8.4375 40.9375 C-7.57732794 37.70578012 -6.89077264 35.83615896 -5 33 C-4.7233412 30.38193405 -4.57206227 27.93226324 -4.5625 25.3125 C-4.55863281 24.59006104 -4.55476563 23.86762207 -4.55078125 23.12329102 C-4.66551486 17.83060554 -5.67827129 14.77676527 -8.875 10.671875 C-10.80492244 7.80379582 -10.51685469 5.29494862 -10 2 C-7.70767773 -2.31495956 -4.19145741 -1.10301511 0 0 Z " fill="#C4C970" transform="translate(333,34)"/>
<path d="M0 0 C6.24603061 4.87495072 9.47354595 12.36772974 11 20 C11.95082282 31.61004712 9.13264142 40.85124248 4.2734375 51.26171875 C-0.3554577 61.21526333 -3.75710049 71.28202667 0.12890625 82.16015625 C0.99825048 84.00039204 1.91901147 85.81788456 2.90625 87.59765625 C4.14311488 90.31434161 4.33075327 92.04790363 4 95 C2.3125 97.3125 2.3125 97.3125 0 99 C-2.44921875 99.3359375 -2.44921875 99.3359375 -5 99 C-6.6953125 97.42578125 -6.6953125 97.42578125 -8.125 95.3125 C-8.62644531 94.57902344 -9.12789062 93.84554687 -9.64453125 93.08984375 C-10.09183594 92.40019531 -10.53914062 91.71054688 -11 91 C-11.598125 90.13375 -12.19625 89.2675 -12.8125 88.375 C-16.66306784 80.67386431 -16.10146378 68.80397151 -14.25 60.5625 C-13.09103308 57.25944427 -11.72331247 54.36432916 -10.07421875 51.29296875 C-8.29324246 47.49139391 -7.20070685 43.46508485 -6.02734375 39.44140625 C-5.68832031 38.63574219 -5.34929687 37.83007812 -5 37 C-3.515 36.505 -3.515 36.505 -2 36 C-1.86778727 22.71854325 -1.86778727 22.71854325 -6.91015625 10.7578125 C-8.56442187 8.08964214 -8.57708654 6.02970436 -8 3 C-5.91075538 -0.29880729 -3.75117296 -0.71450914 0 0 Z " fill="#C6CA72" transform="translate(185,33)"/>
<path d="M0 0 C4.5585258 4.66212866 5.95229507 9.47084059 7.421875 15.7421875 C7.78379644 17.9536656 7.78379644 17.9536656 9 19 C10.13534802 29.78580621 8.0018747 39.05594771 4 49 C3.34 49.66 2.68 50.32 2 51 C-2.08670281 60.57279172 -5.269903 70.82547591 -2.3828125 81.22265625 C-1.39491691 83.62110378 -0.10512276 85.81741837 1.1875 88.0625 C2.36778667 90.87702976 2.38457683 92.98748147 2 96 C-0.08975169 98.32194632 -1.35512443 98.92709209 -4.453125 99.27734375 C-7 99 -7 99 -8.66015625 97.63671875 C-15.55786413 88.04909694 -18.18681467 78.81025329 -17 67 C-15.06056913 56.25853674 -10.3924865 45.94089051 -6 36 C-5.34 36 -4.68 36 -4 36 C-3.68963533 23.01311838 -3.68963533 23.01311838 -8.91015625 11.6015625 C-10.83261902 8.77643799 -10.50907269 6.24533841 -10 3 C-7.77623926 -1.05509312 -4.19760742 -0.72372542 0 0 Z " fill="#C5CA71" transform="translate(260,33)"/>
<path d="M0 0 C0.71687988 0.00088623 1.43375977 0.00177246 2.17236328 0.00268555 C7.72910949 0.12779172 10.94380746 0.83858955 15.1875 4.375 C17.7139189 8.16462835 17.59138499 11.29140395 17.625 15.6875 C17.65787109 16.43451172 17.69074219 17.18152344 17.72460938 17.95117188 C17.76429473 22.06041051 17.42128445 24.61092875 14.78515625 27.85546875 C10.36065752 32.14689985 6.77839294 31.65343893 0.875 31.75 C0.01970703 31.78738281 -0.83558594 31.82476562 -1.71679688 31.86328125 C-6.24683719 31.92644215 -8.15384789 31.90502935 -11.79296875 28.9765625 C-12.45941406 28.11804688 -13.12585938 27.25953125 -13.8125 26.375 C-14.4725 25.715 -15.1325 25.055 -15.8125 24.375 C-16.06568705 21.55755804 -16.18279089 18.88090091 -16.1875 16.0625 C-16.21199219 15.30259766 -16.23648437 14.54269531 -16.26171875 13.75976562 C-16.281931 9.88238242 -16.09547511 7.84060002 -14.0390625 4.45703125 C-9.62024642 0.3250506 -5.94327889 -0.01297063 0 0 Z " fill="#FDFDFA" transform="translate(346.8125,213.625)"/>
<path d="M0 0 C0.33 0 0.66 0 1 0 C2.11817814 11.16403254 -0.4365415 17.16577939 -7.40234375 25.72265625 C-10.62103443 29.24984763 -14.02382785 30.82148604 -18.7497862 31.24839699 C-19.75642479 31.24763755 -20.76306339 31.24687811 -21.80020618 31.24609566 C-23.54987004 31.2520688 -23.54987004 31.2520688 -25.33488065 31.25816262 C-26.61211128 31.25233693 -27.8893419 31.24651125 -29.20527649 31.24050903 C-30.57902629 31.24138128 -31.95277578 31.24313262 -33.32652348 31.24568737 C-37.10059185 31.2501611 -40.87454678 31.24215687 -44.6486007 31.23213124 C-48.71876212 31.22349942 -52.78891708 31.22641671 -56.85908508 31.22793579 C-63.91063771 31.22898481 -70.96215335 31.22270642 -78.01369667 31.21146011 C-88.20905663 31.1952104 -98.4043987 31.18999765 -108.59977021 31.18748413 C-125.14082375 31.1831062 -141.68185756 31.16979443 -158.22290039 31.15087891 C-174.29158428 31.13252265 -190.36026282 31.1183649 -206.42895508 31.10986328 C-207.41932399 31.10933783 -208.40969291 31.10881239 -209.430073 31.10827102 C-214.39843145 31.10566095 -219.36678994 31.10313354 -224.33514845 31.10064721 C-265.55677935 31.07991165 -306.77838855 31.04468344 -348 31 C-348 30.34 -348 29.68 -348 29 C-333.58355294 28.81300377 -319.16687299 28.6504583 -304.75 28.5 C-303.60312965 28.48797546 -302.45625931 28.47595093 -301.27463531 28.46356201 C-265.24788574 28.09075456 -229.22389085 27.95829354 -193.1953125 27.96875 C-192.20422108 27.96899736 -191.21312965 27.96924473 -190.19200516 27.96949959 C-171.11818637 27.97452094 -152.04437631 27.98721321 -132.97058105 28.01831055 C-110.51204705 28.05476016 -88.05385712 28.07337875 -65.59534121 28.0149684 C-60.8152163 28.00281545 -56.03514891 27.99861305 -51.25500488 27.99853516 C-45.94709766 27.99567405 -40.64038625 27.96466113 -35.33285904 27.90133667 C-33.57367919 27.88417736 -31.81437094 27.87663754 -30.05511093 27.88015747 C-18.83719185 27.99692094 -18.83719185 27.99692094 -9.34835815 22.55258179 C-7.46124549 20.37964521 -6.14195282 18.2657659 -5 15.625 C-4.608125 14.75101562 -4.21625 13.87703125 -3.8125 12.9765625 C-3.544375 12.32429688 -3.27625 11.67203125 -3 11 C-2.34 11 -1.68 11 -1 11 C-0.67 7.37 -0.34 3.74 0 0 Z " fill="#9FA450" transform="translate(466,360)"/>
<path d="M0 0 C1.36705078 -0.03673828 1.36705078 -0.03673828 2.76171875 -0.07421875 C9.43379708 -0.1035251 9.43379708 -0.1035251 12.765625 2.203125 C14.125 4.375 14.125 4.375 14 7.5 C13.125 10.375 13.125 10.375 11.125 12.375 C6.80449612 13.6288246 2.40150441 13.55846018 -2.0625 13.5625 C-3.14821289 13.58086914 -3.14821289 13.58086914 -4.25585938 13.59960938 C-6.13039471 13.60484064 -8.0044635 13.49748796 -9.875 13.375 C-11.875 11.375 -11.875 11.375 -12.140625 9.28125 C-12.13289062 8.09015625 -12.13289062 8.09015625 -12.125 6.875 C-12.13015625 6.0809375 -12.1353125 5.286875 -12.140625 4.46875 C-11.37470115 -1.5685321 -4.61348313 0.00647052 0 0 Z " fill="#F8F8F3" transform="translate(887.875,213.625)"/>
<path d="M0 0 C1.00675781 -0.02449219 2.01351562 -0.04898438 3.05078125 -0.07421875 C10.43219779 -0.10362678 10.43219779 -0.10362678 13.81640625 2.234375 C15.125 4.375 15.125 4.375 15.1875 7 C14.125 9.375 14.125 9.375 12.23046875 10.51171875 C7.61662828 11.79430837 3.13883943 11.62357486 -1.625 11.5625 C-3.08099609 11.5615332 -3.08099609 11.5615332 -4.56640625 11.56054688 C-11.73456743 11.51543257 -11.73456743 11.51543257 -12.875 10.375 C-13.14814815 4.63888889 -13.14814815 4.63888889 -12.875 2.375 C-9.44820789 -1.05179211 -4.64577613 0.00590315 0 0 Z " fill="#F4F4EB" transform="translate(736.875,213.625)"/>
<path d="M0 0 C0.33 0 0.66 0 1 0 C2.11817814 11.16403254 -0.4365415 17.16577939 -7.40234375 25.72265625 C-10.54501328 29.16654012 -13.92496667 30.81258272 -18.5517931 31.23047829 C-19.91650761 31.21665139 -19.91650761 31.21665139 -21.30879211 31.20254517 C-22.35902054 31.19688034 -23.40924896 31.19121552 -24.49130249 31.18537903 C-25.63281769 31.16883774 -26.77433289 31.15229645 -27.95043945 31.13525391 C-29.76569878 31.12106163 -29.76569878 31.12106163 -31.61763 31.10658264 C-34.92730759 31.07871551 -38.23665125 31.04180878 -41.54617715 31.00085878 C-45.00810949 30.960168 -48.47013894 30.93106578 -51.93217468 30.90072632 C-58.48406153 30.84155212 -65.03579488 30.77197892 -71.58753699 30.69865549 C-79.04813746 30.61566803 -86.50883496 30.54429468 -93.96956313 30.47388959 C-109.31318648 30.32883567 -124.65662299 30.16922034 -140 30 C-140 29.67 -140 29.34 -140 29 C-120.73082099 28.41452838 -101.47311402 27.91858159 -82.19378662 27.99139404 C-75.3737712 28.01481226 -68.5536842 28.00930848 -61.73364258 28.0020752 C-59.8591314 28.00065219 -57.98461877 28.00064335 -56.11010742 28.00183105 C-50.17345121 28.00402891 -44.23839375 27.97396433 -38.30215454 27.90234375 C-36.41271976 27.88430868 -34.52315446 27.87659229 -32.63363647 27.87988281 C-19.99286576 28.37384558 -19.99286576 28.37384558 -9.28930664 22.64404297 C-7.52210875 20.39062305 -6.138559 18.25791768 -5 15.625 C-4.4121875 14.31402344 -4.4121875 14.31402344 -3.8125 12.9765625 C-3.544375 12.32429688 -3.27625 11.67203125 -3 11 C-2.34 11 -1.68 11 -1 11 C-0.67 7.37 -0.34 3.74 0 0 Z " fill="#A0A44F" transform="translate(466,360)"/>
<path d="M0 0 C4.10415189 -0.02898097 8.20827753 -0.0467922 12.3125 -0.0625 C13.47974609 -0.07087891 14.64699219 -0.07925781 15.84960938 -0.08789062 C17.52700195 -0.09272461 17.52700195 -0.09272461 19.23828125 -0.09765625 C20.26993408 -0.10289307 21.30158691 -0.10812988 22.36450195 -0.11352539 C25 0 25 0 28 1 C28.25 3.3125 28.25 3.3125 28 6 C25.83012293 8.13480771 24.46972766 8.93764084 21.43457031 9.34057617 C20.02062988 9.3170105 20.02062988 9.3170105 18.578125 9.29296875 C17.04091797 9.2784668 17.04091797 9.2784668 15.47265625 9.26367188 C14.40917969 9.23853516 13.34570312 9.21339844 12.25 9.1875 C10.63158203 9.16719727 10.63158203 9.16719727 8.98046875 9.14648438 C6.3198058 9.11116584 3.66015704 9.06184199 1 9 C-0.4783226 6.04335481 -0.06032783 3.25770263 0 0 Z " fill="#F7F7EF" transform="translate(725,237)"/>
<path d="M0 0 C1.91817787 -0.00618599 1.91817787 -0.00618599 3.87510681 -0.01249695 C5.27954316 -0.00188157 6.68397734 0.00902283 8.08840942 0.02018738 C9.57696007 0.02103419 11.06551197 0.02055745 12.55406189 0.01885986 C16.58468019 0.01800059 20.61502961 0.03561518 24.64558554 0.05658174 C28.86163049 0.07535997 33.07768189 0.07709988 37.29376221 0.08065796 C45.27283915 0.08997506 53.25179249 0.11458429 61.23081505 0.14470643 C70.31661635 0.17826087 79.40242362 0.19473907 88.48827147 0.20979273 C107.17422732 0.24113416 125.86006819 0.29388813 144.54592896 0.36076355 C144.54592896 0.69076355 144.54592896 1.02076355 144.54592896 1.36076355 C143.78024345 1.36130832 143.01455795 1.36185308 142.22566986 1.36241436 C123.57955667 1.37739323 104.93369102 1.41988474 86.2877121 1.49285412 C77.27056686 1.52748111 68.25357414 1.55285663 59.23635864 1.55632019 C51.37530692 1.55936328 43.51452697 1.57989998 35.65358019 1.62128812 C31.49266237 1.6425887 27.33213062 1.655234 23.17115784 1.64691734 C19.25079951 1.63935836 15.33122225 1.65527384 11.41100693 1.6888237 C9.97598954 1.6970349 8.54089417 1.69683292 7.10588455 1.68736076 C-0.11515189 1.64443364 -5.9775779 1.65717144 -12.02477264 5.89957142 C-13.6662752 7.57770289 -14.45561058 9.2486568 -15.45407104 11.36076355 C-16.11407104 12.02076355 -16.77407104 12.68076355 -17.45407104 13.36076355 C-17.73215322 15.8845401 -17.73215322 15.8845401 -17.64938354 18.80607605 C-17.64293823 19.88244324 -17.63649292 20.95881042 -17.62985229 22.0677948 C-17.61309448 23.19572449 -17.59633667 24.32365417 -17.57907104 25.48576355 C-17.57004761 26.62142761 -17.56102417 27.75709167 -17.55172729 28.9271698 C-17.52810203 31.73857654 -17.49516117 34.54956653 -17.45407104 37.36076355 C-17.78407104 37.36076355 -18.11407104 37.36076355 -18.45407104 37.36076355 C-21.74346139 14.33503117 -21.74346139 14.33503117 -16.32907104 7.04826355 C-11.79650409 1.9214267 -6.76682452 -0.01688891 0 0 Z " fill="#D6D99E" transform="translate(109.45407104492188,145.6392364501953)"/>
<path d="M0 0 C0 0.66 0 1.32 0 2 C-1.6429552 2.77694891 -3.2895626 3.5461752 -4.9375 4.3125 C-5.85402344 4.74175781 -6.77054687 5.17101562 -7.71484375 5.61328125 C-14.51610118 8.48420442 -20.82394621 10.2195592 -28.15625 11.12451172 C-38.8790283 12.35374737 -38.8790283 12.35374737 -47 18.875 C-47.60714844 19.82761719 -48.21429688 20.78023438 -48.83984375 21.76171875 C-51.6202209 25.92977058 -54.98141815 29.20668134 -58.5625 32.6875 C-59.19607422 33.31188965 -59.82964844 33.9362793 -60.48242188 34.57958984 C-61.98350931 36.05792099 -63.49105458 37.52969045 -65 39 C-65.6328125 37.15234375 -65.6328125 37.15234375 -66 35 C-63.875 32.5625 -63.875 32.5625 -61 30 C-57.27111681 26.36924532 -53.88038782 22.5682701 -50.55078125 18.57421875 C-49.78314453 17.79498047 -49.78314453 17.79498047 -49 17 C-48.34 17 -47.68 17 -47 17 C-47 16.01 -47 15.02 -47 14 C-44.11806928 11.21437405 -41.41068961 10.41076229 -37.53515625 9.6484375 C-35.96411133 9.33132813 -35.96411133 9.33132813 -34.36132812 9.0078125 C-33.27271484 8.79898437 -32.18410156 8.59015625 -31.0625 8.375 C-29.97775391 8.1584375 -28.89300781 7.941875 -27.77539062 7.71875 C-24.8519739 7.1365822 -21.92631523 6.56737106 -19 6 C-17.33309758 5.6678476 -15.66635301 5.33489779 -14 5 C-14 4.34 -14 3.68 -14 3 C-12.0424015 2.49713066 -10.08389623 1.9977901 -8.125 1.5 C-7.03445313 1.2215625 -5.94390625 0.943125 -4.8203125 0.65625 C-2 0 -2 0 0 0 Z " fill="#A4A958" transform="translate(411,305)"/>
<path d="M0 0 C0.33 0 0.66 0 1 0 C1 3.63 1 7.26 1 11 C-12.365 11.495 -12.365 11.495 -26 12 C-26.33 17.94 -26.66 23.88 -27 30 C-31.29 30 -35.58 30 -40 30 C-40 29.34 -40 28.68 -40 28 C-36.37 27.67 -32.74 27.34 -29 27 C-29 21.39 -29 15.78 -29 10 C-28.34 10 -27.68 10 -27 10 C-27 9.34 -27 8.68 -27 8 C-18.42 8 -9.84 8 -1 8 C-0.67 5.36 -0.34 2.72 0 0 Z " fill="#A9AE5E" transform="translate(510,226)"/>
<path d="M0 0 C0.86825912 0.00222061 1.73651825 0.00444122 2.63108826 0.00672913 C3.61202957 0.00680466 4.59297089 0.00688019 5.6036377 0.00695801 C6.6702916 0.01211929 7.7369455 0.01728058 8.83592224 0.02259827 C9.92211349 0.02401321 11.00830475 0.02542816 12.12741089 0.02688599 C15.61230674 0.03250403 19.09713941 0.04505959 22.58201599 0.05775452 C24.93813486 0.06276719 27.29425473 0.0673305 29.65037537 0.07142639 C35.44011063 0.08247933 41.2298088 0.09923501 47.01951599 0.12025452 C47.01951599 0.45025452 47.01951599 0.78025452 47.01951599 1.12025452 C45.70233582 1.13483704 44.38515564 1.14941956 43.02806091 1.16444397 C38.14692362 1.22236165 33.26625081 1.29959487 28.38548279 1.38270569 C26.27195263 1.41598579 24.15833294 1.44400804 22.04466248 1.46669006 C19.00854794 1.50017924 15.97325624 1.55249216 12.93748474 1.60853577 C11.99052231 1.61492569 11.04355988 1.62131561 10.06790161 1.62789917 C9.18721512 1.64769333 8.30652863 1.66748749 7.39915466 1.68788147 C6.23666451 1.70453606 6.23666451 1.70453606 5.0506897 1.7215271 C2.43996528 2.23402261 1.56021304 2.96497705 0.01951599 5.12025452 C-0.43670126 7.21790743 -0.43670126 7.21790743 -0.38111877 9.55995178 C-0.39445755 10.45420364 -0.40779633 11.34845551 -0.42153931 12.26980591 C-0.42165512 13.23236801 -0.42177094 14.19493011 -0.42189026 15.18666077 C-0.43509811 16.1764946 -0.44830597 17.16632843 -0.46191406 18.18615723 C-0.50286559 21.35171834 -0.52450164 24.51698808 -0.54298401 27.68275452 C-0.56673358 30.85200335 -0.59478626 34.02097615 -0.63476562 37.19006348 C-0.65921019 39.163161 -0.67399738 41.13640558 -0.67837524 43.10964966 C-0.68856186 44.00074936 -0.69874847 44.89184906 -0.70924377 45.80995178 C-0.71351883 46.59588211 -0.71779388 47.38181244 -0.72219849 48.19155884 C-0.98048401 50.12025452 -0.98048401 50.12025452 -2.98048401 52.12025452 C-3.0057514 44.87538901 -3.02331581 37.63053478 -3.03541565 30.38563538 C-3.04045757 27.91883418 -3.04729091 25.45203599 -3.05592346 22.98524475 C-3.06799526 19.44820923 -3.07371357 15.91121306 -3.07814026 12.37416077 C-3.08330154 11.26375931 -3.08846283 10.15335785 -3.09378052 9.00930786 C-3.09385605 7.98832504 -3.09393158 6.96734222 -3.0940094 5.91542053 C-3.09623001 5.01163162 -3.09845062 4.10784271 -3.10073853 3.17666626 C-2.94071457 0.44017748 -2.73691731 0.16618497 0 0 Z " fill="#CED19A" transform="translate(541.9804840087891,202.87974548339844)"/>
<path d="M0 0 C1.91796875 0.140625 1.91796875 0.140625 4 1 C5.30078125 3.109375 5.30078125 3.109375 6.3125 5.75 C6.83263672 7.04164063 6.83263672 7.04164063 7.36328125 8.359375 C8 11 8 11 7 16 C3.04 16 -0.92 16 -5 16 C-6.05062809 10.74685957 -5.99760058 10.12816903 -3.625 5.75 C-3.16351562 4.87859375 -2.70203125 4.0071875 -2.2265625 3.109375 C-1 1 -1 1 0 0 Z " fill="#F4F4EB" transform="translate(812,220)"/>
<path d="M0 0 C0.33 0 0.66 0 1 0 C1.4375 2.1875 1.4375 2.1875 1 5 C-4.43563485 10.40568645 -9.65802578 11.12618824 -17.109375 11.1328125 C-17.79501526 11.13376923 -18.48065552 11.13472595 -19.18707275 11.13571167 C-20.63610933 11.13639077 -22.08514899 11.13455532 -23.53417969 11.13037109 C-25.72858708 11.1250519 -27.92278672 11.13030814 -30.1171875 11.13671875 C-31.53125044 11.13605728 -32.94531326 11.1347747 -34.359375 11.1328125 C-36.26928223 11.13112061 -36.26928223 11.13112061 -38.21777344 11.12939453 C-42.21568817 10.99262105 -46.0407789 10.55266643 -50 10 C-50 9.34 -50 8.68 -50 8 C-48.74340576 7.98018066 -47.48681152 7.96036133 -46.19213867 7.93994141 C-41.53470653 7.86393003 -36.87758865 7.77520577 -32.22045898 7.68261719 C-30.20392048 7.64430896 -28.18731322 7.60945935 -26.1706543 7.578125 C-23.27367558 7.53251451 -20.37717104 7.47451361 -17.48046875 7.4140625 C-16.57725388 7.40251129 -15.674039 7.39096008 -14.74345398 7.37905884 C-13.90280899 7.35918915 -13.062164 7.33931946 -12.19604492 7.31884766 C-11.45658127 7.30552399 -10.71711761 7.29220032 -9.95524597 7.2784729 C-7.67895835 7.09785588 -7.67895835 7.09785588 -5 5 C-4.01 5 -3.02 5 -2 5 C-1.34 3.35 -0.68 1.7 0 0 Z " fill="#9CA14F" transform="translate(762,246)"/>
<path d="M0 0 C0.495 1.485 0.495 1.485 1 3 C-6.95877796 11.90541674 -15.78584769 18.13968268 -25.78710938 24.56542969 C-35.0457122 30.5675866 -43.46698281 36.86833244 -51 45 C-51.99551576 46.00446422 -52.993789 47.00624982 -54 48 C-52.78521828 40.2887769 -45.04579001 34.57478631 -39.07202148 30.18554688 C-33.17560281 26.00315583 -27.0920046 22.12672061 -20.98754883 18.25805664 C-12.90895427 13.08880991 -5.95970708 7.52805104 0 0 Z " fill="#A8AD62" transform="translate(209,289)"/>
<path d="M0 0 C0.33 0 0.66 0 1 0 C1 3.3 1 6.6 1 10 C-3.15067349 11.55597141 -6.60048549 12.25576955 -11.02734375 12.265625 C-12.71053711 12.26949219 -12.71053711 12.26949219 -14.42773438 12.2734375 C-15.58595703 12.26570313 -16.74417969 12.25796875 -17.9375 12.25 C-19.6690332 12.26160156 -19.6690332 12.26160156 -21.43554688 12.2734375 C-36.5429504 12.23876761 -36.5429504 12.23876761 -42 7 C-42 6.34 -42 5.68 -42 5 C-37.25 6.875 -37.25 6.875 -35 8 C-31.32390525 8.37034825 -27.62824748 8.46940742 -23.9375 8.625 C-22.92494141 8.6765625 -21.91238281 8.728125 -20.86914062 8.78125 C-14.77416551 9.04847006 -9.0434762 8.84269075 -3 8 C-2.01 5.36 -1.02 2.72 0 0 Z " fill="#AEB366" transform="translate(297,245)"/>
<path d="M0 0 C1.60488281 0.00483398 1.60488281 0.00483398 3.2421875 0.00976562 C4.35335938 0.01814453 5.46453125 0.02652344 6.609375 0.03515625 C8.29933594 0.04192383 8.29933594 0.04192383 10.0234375 0.04882812 C12.80213717 0.06060228 15.58072909 0.07704785 18.359375 0.09765625 C18.854375 1.08765625 18.854375 1.08765625 19.359375 2.09765625 C18.62823486 2.10176514 17.89709473 2.10587402 17.14379883 2.11010742 C13.81901193 2.14307834 10.49604884 2.21372772 7.171875 2.28515625 C6.02138672 2.29095703 4.87089844 2.29675781 3.68554688 2.30273438 C-3.20621414 2.23521776 -3.20621414 2.23521776 -8.87890625 5.5859375 C-9.46027344 6.41480469 -10.04164063 7.24367187 -10.640625 8.09765625 C-10.970625 8.42765625 -11.300625 8.75765625 -11.640625 9.09765625 C-11.92590971 12.72031919 -12.08974728 16.34296059 -12.26171875 19.97265625 C-12.38675781 21.00390625 -12.51179688 22.03515625 -12.640625 23.09765625 C-13.300625 23.42765625 -13.960625 23.75765625 -14.640625 24.09765625 C-15.54188677 8.7161221 -15.54188677 8.7161221 -11.125 2.41796875 C-7.98830484 -0.37203905 -4.00766848 -0.02131739 0 0 Z " fill="#B0B563" transform="translate(273.640625,211.90234375)"/>
<path d="M0 0 C0.33 0 0.66 0 1 0 C1.35525854 5.06243418 1.4047832 8.92145389 -1.50390625 13.33984375 C-5.44521085 17.71335407 -10.42594059 20.6185863 -16.25244141 21.48193359 C-19.72867348 21.58790718 -23.15068835 21.52605703 -26.625 21.375 C-28.41744141 21.33439453 -28.41744141 21.33439453 -30.24609375 21.29296875 C-33.16600152 21.22289096 -36.08200169 21.12470078 -39 21 C-39 20.67 -39 20.34 -39 20 C-38.39115967 20.00112793 -37.78231934 20.00225586 -37.1550293 20.00341797 C-20.45340761 20.34754227 -20.45340761 20.34754227 -6 13 C-3.59448889 10.25003777 -2.38639192 7.72736431 -1.3125 4.25 C-0.93544922 3.05117187 -0.93544922 3.05117187 -0.55078125 1.828125 C-0.36902344 1.22484375 -0.18726563 0.6215625 0 0 Z " fill="#A5AB5B" transform="translate(376,235)"/>
<path d="M0 0 C7.34551641 -0.02320285 14.69102487 -0.04095554 22.03657055 -0.05181217 C25.44765203 -0.05702364 28.85870837 -0.06408968 32.26977539 -0.07543945 C36.19417008 -0.08841505 40.11855471 -0.09324258 44.04296875 -0.09765625 C45.26396774 -0.10281754 46.48496674 -0.10797882 47.7429657 -0.11329651 C48.8837709 -0.11337204 50.02457611 -0.11344757 51.19995117 -0.11352539 C52.20144699 -0.115746 53.20294281 -0.11796661 54.23478699 -0.12025452 C56.92563953 -0.00323381 59.37941825 0.39569646 62 1 C58.78817851 2.90608098 56.46117397 3.22266247 52.75 3.125 C51.85796875 3.10695313 50.9659375 3.08890625 50.046875 3.0703125 C49.03367187 3.03550781 49.03367187 3.03550781 48 3 C48 2.67 48 2.34 48 2 C41.5692887 1.90207039 35.30506324 1.90206416 28.9375 2.87890625 C27 3 27 3 25.21777344 2.52734375 C22.6392104 1.91421119 20.22651092 1.78658654 17.578125 1.68359375 C16.04091797 1.62075195 16.04091797 1.62075195 14.47265625 1.55664062 C13.40917969 1.51732422 12.34570312 1.47800781 11.25 1.4375 C10.17105469 1.39431641 9.09210938 1.35113281 7.98046875 1.30664062 C5.32043572 1.20071011 2.66031188 1.09863579 0 1 C0 0.67 0 0.34 0 0 Z " fill="#B1B858" transform="translate(393,346)"/>
<path d="M0 0 C9.57 0 19.14 0 29 0 C29 0.33 29 0.66 29 1 C20.09 1 11.18 1 2 1 C2 7.27 2 13.54 2 20 C-2.29 20 -6.58 20 -11 20 C-11 19.34 -11 18.68 -11 18 C-7.7 17.67 -4.4 17.34 -1 17 C-0.67 11.39 -0.34 5.78 0 0 Z " fill="#B4B876" transform="translate(411,236)"/>
<path d="M0 0 C0.33 0 0.66 0 1 0 C1 3.3 1 6.6 1 10 C-10.55 10 -22.1 10 -34 10 C-33.67 9.34 -33.34 8.68 -33 8 C-22.44 7.67 -11.88 7.34 -1 7 C-0.67 4.69 -0.34 2.38 0 0 Z " fill="#A8AD5A" transform="translate(448,205)"/>
<path d="M0 0 C0.33 0 0.66 0 1 0 C1.24904749 3.98475984 0.57639016 6.43965556 -1.1875 10 C-5.86273462 19.90989902 -9.7555531 28.91099976 -10 40 C-12.53282827 36.20075759 -12.57263331 33.39018868 -12 29 C-9.83947267 20.719925 -6.39066639 12.83744198 -3 5 C-2.34 5 -1.68 5 -1 5 C-0.67 3.35 -0.34 1.7 0 0 Z " fill="#B4B962" transform="translate(192,71)"/>
<path d="M0 0 C1.48831242 0.00667405 2.97660807 0.01863442 4.46484375 0.03515625 C5.22345703 0.03966797 5.98207031 0.04417969 6.76367188 0.04882812 C8.64326246 0.06064945 10.52281274 0.07858547 12.40234375 0.09765625 C12.73234375 0.75765625 13.06234375 1.41765625 13.40234375 2.09765625 C5.48234375 2.59265625 5.48234375 2.59265625 -2.59765625 3.09765625 C-2.92765625 8.37765625 -3.25765625 13.65765625 -3.59765625 19.09765625 C-7.88765625 19.09765625 -12.17765625 19.09765625 -16.59765625 19.09765625 C-16.59765625 18.43765625 -16.59765625 17.77765625 -16.59765625 17.09765625 C-13.29765625 16.76765625 -9.99765625 16.43765625 -6.59765625 16.09765625 C-6.38109375 13.77734375 -6.38109375 13.77734375 -6.16015625 11.41015625 C-5.02639711 0.13643858 -5.02639711 0.13643858 0 0 Z " fill="#999F4A" transform="translate(879.59765625,236.90234375)"/>
<path d="M0 0 C0.33 0 0.66 0 1 0 C1 2.97 1 5.94 1 9 C-7.58 9.33 -16.16 9.66 -25 10 C-25.66 11.98 -26.32 13.96 -27 16 C-27.66 15.67 -28.32 15.34 -29 15 C-29.36276514 10.5258966 -29.36276514 10.5258966 -27.86206055 8.3503418 C-25.20876893 6.42620965 -23.27167032 6.65943897 -20.01953125 6.70703125 C-18.85615234 6.71669922 -17.69277344 6.72636719 -16.49414062 6.73632812 C-15.27919922 6.76146484 -14.06425781 6.78660156 -12.8125 6.8125 C-11.58595703 6.82603516 -10.35941406 6.83957031 -9.09570312 6.85351562 C-6.06336336 6.88891259 -3.03190004 6.9382924 0 7 C0 4.69 0 2.38 0 0 Z " fill="#9EA54B" transform="translate(580,227)"/>
<path d="M0 0 C0.33 0 0.66 0 1 0 C1 3.3 1 6.6 1 10 C-7.58 10.33 -16.16 10.66 -25 11 C-25.66 12.65 -26.32 14.3 -27 16 C-27.33 16 -27.66 16 -28 16 C-28.125 13.125 -28.125 13.125 -28 10 C-26 8 -26 8 -23.38623047 7.77294922 C-22.30744629 7.78342285 -21.22866211 7.79389648 -20.1171875 7.8046875 C-18.36728516 7.81435547 -18.36728516 7.81435547 -16.58203125 7.82421875 C-15.35871094 7.84097656 -14.13539063 7.85773438 -12.875 7.875 C-11.64394531 7.88402344 -10.41289063 7.89304688 -9.14453125 7.90234375 C-6.09616185 7.92597452 -3.04817618 7.95891946 0 8 C0 5.36 0 2.72 0 0 Z " fill="#9BA146" transform="translate(650,226)"/>
<path d="M0 0 C1.05960937 0.00676758 1.05960937 0.00676758 2.140625 0.01367188 C3.88545275 0.02546125 5.630237 0.04339676 7.375 0.0625 C7.375 0.3925 7.375 0.7225 7.375 1.0625 C6.66214844 1.09988281 5.94929688 1.13726562 5.21484375 1.17578125 C-4.34898116 1.75021975 -4.34898116 1.75021975 -12.26953125 6.71484375 C-14.12591315 9.9300758 -14.14174435 12.62417806 -14.3125 16.3125 C-14.41111328 18.20742187 -14.41111328 18.20742187 -14.51171875 20.140625 C-14.54910156 21.10484375 -14.58648437 22.0690625 -14.625 23.0625 C-15.285 22.7325 -15.945 22.4025 -16.625 22.0625 C-17.69429502 9.82501253 -17.69429502 9.82501253 -15.13671875 5.609375 C-10.20449714 0.74863487 -6.83023902 -0.08191246 0 0 Z " fill="#B0B663" transform="translate(345.625,211.9375)"/>
<path d="M0 0 C0.66 0.66 1.32 1.32 2 2 C1.63452544 5.22214303 0.14448255 8.11611914 -1.12060547 11.07788086 C-4.19319342 18.3075536 -6.15081174 25.13768802 -7 33 C-7.33 33 -7.66 33 -8 33 C-8.39381809 25.30960778 -8.71551524 18.7626338 -4.97265625 11.8671875 C-3.96151525 9.92612165 -3.45060803 8.13445908 -3 6 C-2.34 6 -1.68 6 -1 6 C-0.67 4.02 -0.34 2.04 0 0 Z " fill="#B4BA64" transform="translate(335,77)"/>
<path d="M0 0 C0.33 0 0.66 0 1 0 C1 2.64 1 5.28 1 8 C-8.24 8 -17.48 8 -27 8 C-26.67 7.34 -26.34 6.68 -26 6 C-17.75 6 -9.5 6 -1 6 C-0.67 4.02 -0.34 2.04 0 0 Z " fill="#A5AA52" transform="translate(440,228)"/>
<path d="M0 0 C13.86 0.495 13.86 0.495 28 1 C28.33 1.99 28.66 2.98 29 4 C24.72918086 4.02897435 20.45838691 4.04678996 16.1875 4.0625 C14.36508789 4.07506836 14.36508789 4.07506836 12.50585938 4.08789062 C10.76079102 4.09272461 10.76079102 4.09272461 8.98046875 4.09765625 C7.90692139 4.10289307 6.83337402 4.10812988 5.72729492 4.11352539 C3 4 3 4 0 3 C0 2.01 0 1.02 0 0 Z " fill="#B4B771" transform="translate(331,253)"/>
<path d="M0 0 C0.33 0 0.66 0 1 0 C1.3125 2.6875 1.3125 2.6875 1 6 C-0.60361775 7.72741589 -2.28305852 9.38517261 -4 11 C-4.8971875 11.95519531 -5.794375 12.91039062 -6.71875 13.89453125 C-7.64576922 14.8672486 -8.57285291 15.83990452 -9.5 16.8125 C-10.19029297 17.56563477 -10.19029297 17.56563477 -10.89453125 18.33398438 C-13.20747973 20.7283747 -14.47718685 21.94039356 -17.84375 22.32421875 C-18.5553125 22.21722656 -19.266875 22.11023438 -20 22 C-17.2028289 19.08654927 -14.2808518 16.62233934 -11.0625 14.1875 C-5.96392444 10.1567677 -2.09904644 6.29713932 0 0 Z " fill="#CDD189" transform="translate(203,277)"/>
<path d="M0 0 C1.44468233 4.27664241 0.31572231 6.48282543 -1.5625 10.421875 C-5.37249054 17.25501021 -9.70315176 23.30200366 -16 28 C-15.42955446 24.21973402 -13.81183116 22.45710227 -11.1875 19.75 C-7.50996585 15.74411459 -5.09076099 11.98954555 -3 7 C-2.70222656 6.32195312 -2.40445313 5.64390625 -2.09765625 4.9453125 C-1.38237115 3.30378264 -0.68869281 1.65286275 0 0 Z " fill="#A7AC5A" transform="translate(225,315)"/>
<path d="M0 0 C0.33 0 0.66 0 1 0 C1.57891101 4.4865603 0.01918845 7.49596876 -1.84375 11.44140625 C-3.8383755 15.85518902 -5.39516127 20.43303872 -7 25 C-7.33 25 -7.66 25 -8 25 C-8.19294408 20.17639811 -7.75747614 16.50353262 -6 12 C-5.34 12 -4.68 12 -4 12 C-3.8453125 10.4221875 -3.8453125 10.4221875 -3.6875 8.8125 C-3.02191729 5.12154134 -2.18245468 3.00087519 0 0 Z " fill="#B4B967" transform="translate(262,78)"/>
<path d="M0 0 C0.66 0.33 1.32 0.66 2 1 C1.65066406 1.59167969 1.30132812 2.18335938 0.94140625 2.79296875 C0.48636719 3.58316406 0.03132813 4.37335938 -0.4375 5.1875 C-0.88996094 5.96480469 -1.34242187 6.74210937 -1.80859375 7.54296875 C-3.02866624 10.05911824 -3.52476132 12.25823839 -4 15 C-5.0625 17.3125 -5.0625 17.3125 -6 19 C-6.33 19 -6.66 19 -7 19 C-7.3643042 12.07822015 -6.65001767 6.95287683 -1.8125 1.5625 C-1.214375 1.046875 -0.61625 0.53125 0 0 Z " fill="#CCD28B" transform="translate(104,349)"/>
<path d="M0 0 C-0.1875 1.875 -0.1875 1.875 -1 4 C-1.73476562 4.27199219 -2.46953125 4.54398437 -3.2265625 4.82421875 C-6.67471413 6.28604078 -8.58631027 8.25760559 -11.1875 10.9375 C-12.04730469 11.81277344 -12.90710938 12.68804687 -13.79296875 13.58984375 C-16.10370529 15.98999276 -16.10370529 15.98999276 -18 19 C-18.99 18.67 -19.98 18.34 -21 18 C-20.278125 17.29875 -19.55625 16.5975 -18.8125 15.875 C-16.94383214 14.02194775 -15.38600439 12.21545006 -13.75 10.125 C-10.67792721 6.35606724 -5.07187774 0 0 0 Z " fill="#D0D590" transform="translate(159,267)"/>
<path d="M0 0 C0.91120605 0.01047363 1.82241211 0.02094727 2.76123047 0.03173828 C3.74736328 0.03818359 4.73349609 0.04462891 5.74951172 0.05126953 C7.29832031 0.07640625 7.29832031 0.07640625 8.87841797 0.10205078 C9.91869141 0.11107422 10.95896484 0.12009766 12.03076172 0.12939453 C14.60520889 0.15301331 17.17920009 0.18594929 19.75341797 0.22705078 C19.75341797 0.55705078 19.75341797 0.88705078 19.75341797 1.22705078 C19.12250244 1.2823999 18.49158691 1.33774902 17.84155273 1.39477539 C14.99924117 1.64673198 12.15759578 1.90554847 9.31591797 2.16455078 C7.82608398 2.29506836 7.82608398 2.29506836 6.30615234 2.42822266 C5.36191406 2.51523438 4.41767578 2.60224609 3.44482422 2.69189453 C2.13300171 2.8097229 2.13300171 2.8097229 0.79467773 2.92993164 C-1.23672659 3.01790126 -1.23672659 3.01790126 -2.24658203 4.22705078 C-2.61418934 6.55523042 -2.94899784 8.88888928 -3.24658203 11.22705078 C-3.90658203 10.89705078 -4.56658203 10.56705078 -5.24658203 10.22705078 C-4.29891288 0.43446957 -4.29891288 0.43446957 0 0 Z " fill="#99A043" transform="translate(727.24658203125,211.77294921875)"/>
<path d="M0 0 C0.66 0.33 1.32 0.66 2 1 C2 1.66 2 2.32 2 3 C-1.43367856 5.09352976 -4.09363593 5.23437612 -8.078125 5.1953125 C-9.81835938 5.18564453 -9.81835938 5.18564453 -11.59375 5.17578125 C-12.8003125 5.15902344 -14.006875 5.14226562 -15.25 5.125 C-17.08304687 5.11146484 -17.08304687 5.11146484 -18.953125 5.09765625 C-21.96894782 5.07409513 -24.98437492 5.04119706 -28 5 C-28 4.67 -28 4.34 -28 4 C-27.36497559 3.98541748 -26.72995117 3.97083496 -26.07568359 3.95581055 C-23.17486919 3.88094911 -20.27515794 3.78441574 -17.375 3.6875 C-15.87646484 3.65366211 -15.87646484 3.65366211 -14.34765625 3.61914062 C-8.75099934 3.41528888 -4.94630359 2.85733071 0 0 Z " fill="#A3A94F" transform="translate(365,251)"/>
<path d="M0 0 C0.66 0.33 1.32 0.66 2 1 C-5.42955227 11.72250401 -5.42955227 11.72250401 -11 15 C-13.9375 14.875 -13.9375 14.875 -16 14 C-15.67 13.34 -15.34 12.68 -15 12 C-14.01 12.33 -13.02 12.66 -12 13 C-11.55269531 12.48050781 -11.10539063 11.96101563 -10.64453125 11.42578125 C-7.21798969 7.47320346 -3.75553321 3.64172918 0 0 Z " fill="#CCD189" transform="translate(160,313)"/>
<path d="M0 0 C-0.5 2.3125 -0.5 2.3125 -2 5 C-3.98954745 5.94535732 -5.99065921 6.57928712 -8.08984375 7.2421875 C-10.61253365 8.24300926 -11.70522404 9.65321857 -13 12 C-13.99 11.67 -14.98 11.34 -16 11 C-12.20918993 6.84233734 -5.90642573 0 0 0 Z " fill="#CCD188" transform="translate(178,302)"/>
<path d="M0 0 C1.485 0.99 1.485 0.99 3 2 C3.328125 4.390625 3.328125 4.390625 3.25 7.25 C3.22421875 8.23097656 3.1984375 9.21195313 3.171875 10.22265625 C2.98745031 13.20279162 2.63126287 16.08040921 2 19 C1.67 19 1.34 19 1 19 C0.15976812 14.64667264 -0.10770995 10.55557481 -0.0625 6.125 C-0.05347656 4.97257813 -0.04445313 3.82015625 -0.03515625 2.6328125 C-0.02355469 1.76398438 -0.01195312 0.89515625 0 0 Z " fill="#BBC07B" transform="translate(376,222)"/>
<path d="M0 0 C1.27617188 0.02320313 2.55234375 0.04640625 3.8671875 0.0703125 C5.78917969 0.09738281 5.78917969 0.09738281 7.75 0.125 C9.23113281 0.15980469 9.23113281 0.15980469 10.7421875 0.1953125 C10.7421875 0.5253125 10.7421875 0.8553125 10.7421875 1.1953125 C7.1121875 1.1953125 3.4821875 1.1953125 -0.2578125 1.1953125 C-0.9178125 2.5153125 -1.5778125 3.8353125 -2.2578125 5.1953125 C-3.7578125 7.4453125 -3.7578125 7.4453125 -5.2578125 9.1953125 C-5.9178125 9.1953125 -6.5778125 9.1953125 -7.2578125 9.1953125 C-4.95079337 0.29681015 -4.95079337 0.29681015 0 0 Z " fill="#C1C583" transform="translate(809.2578125,202.8046875)"/>
<path d="M0 0 C5.28 0.33 10.56 0.66 16 1 C15.01 2.32 14.02 3.64 13 5 C6.5364694 4.56179454 5.50035442 4.40028353 0 0 Z " fill="#C1C772" transform="translate(164,344)"/>
<path d="M0 0 C16.335 0.495 16.335 0.495 33 1 C33 1.33 33 1.66 33 2 C32.04109863 2.02505615 31.08219727 2.0501123 30.09423828 2.07592773 C26.54201523 2.1699862 22.98998844 2.27021058 19.43798828 2.37231445 C17.89962347 2.41566926 16.36121037 2.45734395 14.82275391 2.49731445 C12.6134586 2.55500398 10.40440652 2.61870179 8.1953125 2.68359375 C7.50567413 2.70030624 6.81603577 2.71701874 6.10549927 2.73423767 C2.42885736 2.80806995 2.42885736 2.80806995 -1 4 C-0.67 2.68 -0.34 1.36 0 0 Z " fill="#A9AE66" transform="translate(483,213)"/>
<path d="M0 0 C4.75 1.875 4.75 1.875 7 3 C9.54615009 3.23172827 12.07396225 3.41894529 14.625 3.5625 C15.33140625 3.60568359 16.0378125 3.64886719 16.765625 3.69335938 C18.51018537 3.79944751 20.25506697 3.90022889 22 4 C22 4.33 22 4.66 22 5 C19.27118374 5.27679283 16.54546556 5.52206665 13.8125 5.75 C13.04357422 5.83121094 12.27464844 5.91242188 11.48242188 5.99609375 C7.39235788 6.31206436 5.55387684 6.33757411 1.94921875 4.140625 C0 2 0 2 0 0 Z " fill="#B7BB6B" transform="translate(255,250)"/>
<path d="M0 0 C0 0.66 0 1.32 0 2 C-0.78375 2.2475 -1.5675 2.495 -2.375 2.75 C-5.41464865 4.19745174 -5.69906137 5.02642598 -7 8 C-7.99 8.66 -8.98 9.32 -10 10 C-10.35915493 3.65492958 -10.35915493 3.65492958 -8.9375 1.0625 C-5.98831309 -0.55479605 -3.29132441 -0.18630138 0 0 Z " fill="#CED287" transform="translate(260,33)"/>
<path d="M0 0 C0.33 0 0.66 0 1 0 C1.25 5.625 1.25 5.625 -1 9 C-3.8203125 9.29296875 -3.8203125 9.29296875 -7.125 9.1875 C-8.76855469 9.14689453 -8.76855469 9.14689453 -10.4453125 9.10546875 C-11.28835938 9.07066406 -12.13140625 9.03585938 -13 9 C-11 7 -11 7 -7.0625 6.75 C-4.92639138 6.62005569 -4.92639138 6.62005569 -3 6 C-0.91367303 3.08158143 -0.91367303 3.08158143 0 0 Z " fill="#999E48" transform="translate(797,246)"/>
<path d="M0 0 C-0.99 0.5259375 -0.99 0.5259375 -2 1.0625 C-5.41130409 3.26563389 -8.25306086 5.82452848 -11.23046875 8.57421875 C-13 10 -13 10 -15 10 C-13.15480173 5.47087698 -9.97584893 2.31723262 -5.9375 -0.375 C-3.58376417 -1.13426962 -2.29943113 -0.8212254 0 0 Z " fill="#D0D591" transform="translate(265,204)"/>
<path d="M0 0 C0.33 0.66 0.66 1.32 1 2 C0.09827532 3.17825358 -0.82201502 4.34231577 -1.75 5.5 C-2.26046875 6.1496875 -2.7709375 6.799375 -3.296875 7.46875 C-5 9 -5 9 -9 9 C-9 9.66 -9 10.32 -9 11 C-9.66 10.67 -10.32 10.34 -11 10 C-11 9.34 -11 8.68 -11 8 C-9.1015625 6.5625 -9.1015625 6.5625 -6.625 5 C-4.15047838 3.42887516 -2.07616959 2.07616959 0 0 Z " fill="#C5CB7E" transform="translate(201,333)"/>
<path d="M0 0 C0.33 0 0.66 0 1 0 C1.78195713 9.92216719 1.78195713 9.92216719 -1.3125 14.1875 C-4 16 -4 16 -7 16 C-5.625 14 -5.625 14 -4 12 C-3.34 12 -2.68 12 -2 12 C-1.34 8.04 -0.68 4.08 0 0 Z " fill="#9CA14C" transform="translate(762,213)"/>
<path d="M0 0 C0.33 0 0.66 0 1 0 C1.0544452 2.20805524 1.09299283 4.41650554 1.125 6.625 C1.14820313 7.85476562 1.17140625 9.08453125 1.1953125 10.3515625 C1.0030428 13.94316041 0.30258556 16.66661175 -1 20 C-1.66 20 -2.32 20 -3 20 C-2.06830908 13.32288172 -1.03189962 6.66226455 0 0 Z " fill="#B5BB65" transform="translate(267,55)"/>
<path d="M0 0 C-4.8545652 3.88365216 -10.15778226 6.87555719 -16 9 C-4.87272727 -2.43636364 -4.87272727 -2.43636364 0 0 Z " fill="#AAAF63" transform="translate(173,273)"/>
<path d="M0 0 C0 0.66 0 1.32 0 2 C-2.38564077 1.42415568 -4.66682784 0.77772405 -7 0 C-9.22574335 -0.22451458 -11.45581519 -0.40782878 -13.6875 -0.5625 C-14.86699219 -0.64628906 -16.04648437 -0.73007813 -17.26171875 -0.81640625 C-18.16535156 -0.87699219 -19.06898438 -0.93757812 -20 -1 C-20 -1.33 -20 -1.66 -20 -2 C-18.27185839 -2.19672365 -16.54240803 -2.38196799 -14.8125 -2.5625 C-13.84957031 -2.66691406 -12.88664062 -2.77132812 -11.89453125 -2.87890625 C-7.37397159 -3.06802548 -3.93722112 -2.18734507 0 0 Z " fill="#B3B86D" transform="translate(362,215)"/>
<path d="M0 0 C0.33 0 0.66 0 1 0 C1.36075949 4.44936709 1.36075949 4.44936709 -0.1875 6.8125 C-2.55982525 8.36678206 -4.22041345 8.22537188 -7 8 C-7.66 6.68 -8.32 5.36 -9 4 C-6.36 4 -3.72 4 -1 4 C-0.67 2.68 -0.34 1.36 0 0 Z " fill="#B4B967" transform="translate(260,124)"/>
<path d="M0 0 C0.66 0 1.32 0 2 0 C2.05423638 1.91635217 2.09289963 3.83314925 2.125 5.75 C2.14820313 6.81734375 2.17140625 7.8846875 2.1953125 8.984375 C2.00487687 11.92470106 1.52670104 13.52361878 0 16 C-0.33 16 -0.66 16 -1 16 C-0.67 10.72 -0.34 5.44 0 0 Z " fill="#BABF6F" transform="translate(194,53)"/>
<path d="M0 0 C0.66 0.33 1.32 0.66 2 1 C-0.31 5.29 -2.62 9.58 -5 14 C-5.66 14 -6.32 14 -7 14 C-2.8 2.8 -2.8 2.8 0 0 Z " fill="#9A9F4F" transform="translate(811,218)"/>
<path d="M0 0 C1.37466431 0.07069702 1.37466431 0.07069702 2.77709961 0.14282227 C4.26113281 0.21533203 4.26113281 0.21533203 5.77514648 0.28930664 C7.33652344 0.37341797 7.33652344 0.37341797 8.92944336 0.45922852 C10.49662109 0.53753906 10.49662109 0.53753906 12.09545898 0.61743164 C14.68622572 0.74756148 17.27665002 0.8825401 19.86694336 1.02172852 C19.86694336 1.35172852 19.86694336 1.68172852 19.86694336 2.02172852 C19.25173828 2.04154785 18.6365332 2.06136719 18.00268555 2.08178711 C15.20701794 2.17722578 12.41207826 2.28682806 9.61694336 2.39672852 C8.16481445 2.44313477 8.16481445 2.44313477 6.68334961 2.49047852 C5.7487793 2.52915039 4.81420898 2.56782227 3.85131836 2.60766602 C2.99248047 2.63908691 2.13364258 2.67050781 1.2487793 2.70288086 C-1.26125944 3.03889055 -2.95237992 3.76364579 -5.13305664 5.02172852 C-2.71657797 0.02767259 -2.71657797 0.02767259 0 0 Z " fill="#BBC270" transform="translate(365.133056640625,304.978271484375)"/>
<path d="M0 0 C0.69287109 0.02255859 1.38574219 0.04511719 2.09960938 0.06835938 C3.79651573 0.12687339 5.49229861 0.2165452 7.1875 0.3125 C7.1875 0.6425 7.1875 0.9725 7.1875 1.3125 C6.15302734 1.36857422 6.15302734 1.36857422 5.09765625 1.42578125 C-1.29896465 1.87328148 -6.84320248 2.96899801 -12.8125 5.3125 C-8.89053241 0.47667588 -6.00416361 -0.37346472 0 0 Z " fill="#A6AC53" transform="translate(345.8125,211.6875)"/>
<path d="M0 0 C0.33 0 0.66 0 1 0 C1 5.94 1 11.88 1 18 C0.34 18 -0.32 18 -1 18 C-1.33 18.99 -1.66 19.98 -2 21 C-2.625 19.1875 -2.625 19.1875 -3 17 C-2.01 15.515 -2.01 15.515 -1 14 C-0.70547416 11.61322924 -0.5071783 9.21373906 -0.375 6.8125 C-0.30023438 5.54019531 -0.22546875 4.26789062 -0.1484375 2.95703125 C-0.09945313 1.98121094 -0.05046875 1.00539062 0 0 Z " fill="#D3D692" transform="translate(329,53)"/>
<path d="M0 0 C-1.15173355 2.46800047 -2.04783565 4.04783565 -4 6 C-4.3063859 8.73434962 -4.5113336 11.38279821 -4.625 14.125 C-4.66367187 14.87910156 -4.70234375 15.63320312 -4.7421875 16.41015625 C-4.83651031 18.27303184 -4.91934662 20.13648255 -5 22 C-5.33 22 -5.66 22 -6 22 C-6.1083667 19.2697611 -6.18746694 16.54385457 -6.25 13.8125 C-6.28351563 13.04357422 -6.31703125 12.27464844 -6.3515625 11.48242188 C-6.4209807 7.43881179 -6.2957051 5.4771605 -4.109375 1.94921875 C-2 0 -2 0 0 0 Z " fill="#E0E1C5" transform="translate(337,216)"/>
<path d="M0 0 C-0.68707031 0.30292969 -1.37414062 0.60585937 -2.08203125 0.91796875 C-8.88093527 3.98065855 -8.88093527 3.98065855 -13 10 C-13.99 10.495 -13.99 10.495 -15 11 C-13.50535946 5.02143783 -10.99379008 2.90513914 -5.9375 -0.3125 C-3.55437451 -1.15812518 -2.3819215 -0.68833075 0 0 Z " fill="#D0D58E" transform="translate(107,147)"/>
<path d="M0 0 C0 0.99 0 1.98 0 3 C-3.63 3 -7.26 3 -11 3 C-11.33 2.34 -11.66 1.68 -12 1 C-10.56274129 0.83126522 -9.12518162 0.66509263 -7.6875 0.5 C-6.88699219 0.4071875 -6.08648438 0.314375 -5.26171875 0.21875 C-3 0 -3 0 0 0 Z " fill="#969E4D" transform="translate(843,253)"/>
<path d="M0 0 C2 3 2 3 2 6 C4.97 6.33 7.94 6.66 11 7 C11 7.33 11 7.66 11 8 C7.04 8 3.08 8 -1 8 C-0.67 5.36 -0.34 2.72 0 0 Z " fill="#ADB36F" transform="translate(784,248)"/>
<path d="M0 0 C-0.55728913 3.34373475 -1.35173889 6.03312999 -3 9 C-3.33 9 -3.66 9 -4 9 C-4 6.36 -4 3.72 -4 1 C-2 0 -2 0 0 0 Z " fill="#C8CD7F" transform="translate(101,359)"/>
<path d="M0 0 C0.33 0 0.66 0 1 0 C1.28571429 8.57142857 1.28571429 8.57142857 -1 12 C-1.33 12 -1.66 12 -2 12 C-2.17835515 7.45194365 -1.99785435 4.1205746 0 0 Z " fill="#ADB263" transform="translate(376,235)"/>
<path d="M0 0 C1.26467795 2.52935589 0.7249339 3.34190903 0 6 C0 6.99 0 7.98 0 9 C-2.5 10.6875 -2.5 10.6875 -5 12 C-3.68938409 7.76570244 -2.05643741 3.92592596 0 0 Z " fill="#C3C887" transform="translate(801,212)"/>
<path d="M0 0 C3.71888239 0.50712033 6.73454239 1.11608215 10 3 C10 3.66 10 4.32 10 5 C6.05140217 4.4359146 3.29120954 3.2568294 0 1 C0 0.67 0 0.34 0 0 Z " fill="#B5BA71" transform="translate(108,386)"/>
<path d="M0 0 C0.66 0.66 1.32 1.32 2 2 C-0.31 4.31 -2.62 6.62 -5 9 C-5 4.61031544 -2.87194899 3.23094261 0 0 Z M-8 9 C-7.01 9.495 -7.01 9.495 -6 10 C-6.99 10.495 -6.99 10.495 -8 11 C-8 10.34 -8 9.68 -8 9 Z " fill="#C0C66B" transform="translate(162,313)"/>
<path d="M0 0 C0.66 0 1.32 0 2 0 C1.6875 1.875 1.6875 1.875 1 4 C0.01 4.66 -0.98 5.32 -2 6 C-3.19232613 8.05003955 -3.19232613 8.05003955 -4 10 C-4.33 8.02 -4.66 6.04 -5 4 C-3.35 3.67 -1.7 3.34 0 3 C0 2.01 0 1.02 0 0 Z " fill="#979E47" transform="translate(910,231)"/>
<path d="M0 0 C0.75 1.5625 0.75 1.5625 1 4 C-0.13084437 6.50286409 -1.52139516 8.67007722 -3 11 C-3.33 11 -3.66 11 -4 11 C-4 9.35 -4 7.7 -4 6 C-3.01 5.67 -2.02 5.34 -1 5 C-0.67 3.35 -0.34 1.7 0 0 Z " fill="#BEC384" transform="translate(340,68)"/>
<path d="M0 0 C0.66 0 1.32 0 2 0 C2.36075949 4.44936709 2.36075949 4.44936709 0.8125 6.8125 C-1.55982525 8.36678206 -3.22041345 8.22537188 -6 8 C-5.38125 7.79375 -4.7625 7.5875 -4.125 7.375 C-1.15346355 5.45224112 -0.86975341 3.33405473 0 0 Z " fill="#B3B764" transform="translate(187,123)"/>
<path d="M0 0 C2.96052484 3.36423277 3.92289822 6.69159287 5 11 C4.34 10.67 3.68 10.34 3 10 C3 9.01 3 8.02 3 7 C2.34 7 1.68 7 1 7 C0.34 5.02 -0.32 3.04 -1 1 C-0.67 0.67 -0.34 0.34 0 0 Z " fill="#C6CC7E" transform="translate(123,256)"/>
<path d="M0 0 C0.66 1.32 1.32 2.64 2 4 C1 5 1 5 -1.94140625 5.09765625 C-3.73384766 5.08025391 -3.73384766 5.08025391 -5.5625 5.0625 C-7.35880859 5.04896484 -7.35880859 5.04896484 -9.19140625 5.03515625 C-10.11824219 5.02355469 -11.04507813 5.01195312 -12 5 C-12 4.67 -12 4.34 -12 4 C-6.555 3.505 -6.555 3.505 -1 3 C-0.67 2.01 -0.34 1.02 0 0 Z " fill="#B7BD72" transform="translate(820,232)"/>
<path d="M0 0 C1.485 0.99 1.485 0.99 3 2 C3.29296875 4.3828125 3.29296875 4.3828125 3.1875 7.125 C3.16042969 8.03507813 3.13335937 8.94515625 3.10546875 9.8828125 C3.07066406 10.58148438 3.03585938 11.28015625 3 12 C2.34 11.67 1.68 11.34 1 11 C0.5859375 8.49609375 0.5859375 8.49609375 0.375 5.4375 C0.30023438 4.42558594 0.22546875 3.41367188 0.1484375 2.37109375 C0.09945312 1.58863281 0.05046875 0.80617187 0 0 Z " fill="#C7CE77" transform="translate(98,217)"/>
<path d="M0 0 C0.66 0.66 1.32 1.32 2 2 C1.75 3.75 1.75 3.75 1 6 C0.649375 7.0725 0.29875 8.145 -0.0625 9.25 C-0.371875 10.1575 -0.68125 11.065 -1 12 C-1.33 12 -1.66 12 -2 12 C-1.85831863 10.56208484 -1.71148957 9.1246763 -1.5625 7.6875 C-1.48128906 6.88699219 -1.40007812 6.08648437 -1.31640625 5.26171875 C-1 3 -1 3 0 0 Z " fill="#B7BC75" transform="translate(335,77)"/>
<path d="M0 0 C0.66 0.66 1.32 1.32 2 2 C1.34 3.65 0.68 5.3 0 7 C-2.64 7 -5.28 7 -8 7 C-8 6.67 -8 6.34 -8 6 C-7.05125 5.7525 -6.1025 5.505 -5.125 5.25 C-1.91306809 4.3142923 -1.91306809 4.3142923 -0.625 1.875 C-0.41875 1.25625 -0.2125 0.6375 0 0 Z " fill="#B7BC71" transform="translate(902,220)"/>
<path d="M0 0 C3 3.625 3 3.625 3 7 C1.02 7.99 1.02 7.99 -1 9 C-0.67 6.03 -0.34 3.06 0 0 Z " fill="#CACF7A" transform="translate(318,91)"/>
<path d="M0 0 C0.66 0 1.32 0 2 0 C1.25 6.625 1.25 6.625 -1 10 C-1.125 3.375 -1.125 3.375 0 0 Z " fill="#B5BA64" transform="translate(339,63)"/>
<path d="M0 0 C3.625 -0.1875 3.625 -0.1875 7 0 C7 0.66 7 1.32 7 2 C2.545 2.495 2.545 2.495 -2 3 C-1.34 2.01 -0.68 1.02 0 0 Z " fill="#DADDA4" transform="translate(253,33)"/>
<path d="M0 0 C-0.6875 1.9375 -0.6875 1.9375 -2 4 C-4.625 4.75 -4.625 4.75 -7 5 C-2.25 0 -2.25 0 0 0 Z " fill="#D1D695" transform="translate(331,204)"/>
</svg>
